<?xml version="1.0" standalone="no"?>
<!DOCTYPE svg PUBLIC "-//W3C//DTD SVG 20010904//EN"
 "http://www.w3.org/TR/2001/REC-SVG-20010904/DTD/svg10.dtd">
<svg version="1.0" xmlns="http://www.w3.org/2000/svg"
 width="960.000000pt" height="960.000000pt" viewBox="0 0 960.000000 960.000000"
 preserveAspectRatio="xMidYMid meet">

<g transform="translate(0.000000,960.000000) scale(0.100000,-0.100000)"
fill="#000000" stroke="none">
<path d="M4660 8578 c-28 -22 -56 -52 -61 -65 -8 -22 -11 -23 -41 -11 -21 8
-55 11 -90 8 -53 -5 -62 -10 -110 -56 -29 -29 -75 -73 -103 -100 -27 -26 -64
-71 -82 -98 -22 -35 -44 -56 -74 -71 l-43 -20 -47 48 c-37 38 -52 47 -80 47
-55 0 -80 -20 -96 -72 -14 -48 -22 -56 -103 -94 -30 -14 -32 -17 -16 -26 16
-9 16 -12 2 -33 -9 -14 -16 -31 -16 -39 0 -9 -8 -29 -18 -46 -18 -29 -19 -30
-36 -11 -17 19 -18 19 -37 0 -28 -28 -42 -24 -34 8 3 15 12 32 18 36 9 6 9 10
-1 14 -6 2 -10 9 -6 14 3 5 2 14 -2 21 -5 8 -10 6 -15 -8 -7 -18 -8 -18 -8 2
-1 25 -35 38 -62 23 -10 -5 -30 -30 -45 -54 -30 -51 -42 -55 -67 -20 -17 24
-16 45 4 45 9 0 49 36 49 45 0 9 -75 -30 -87 -45 -7 -8 -18 -40 -24 -70 -17
-74 -72 -133 -117 -124 -51 10 -92 -53 -92 -142 0 -33 -13 -44 -54 -44 -52 0
-116 -86 -116 -155 0 -20 -10 -52 -24 -73 -22 -36 -43 -48 -132 -82 -17 -6
-36 -21 -42 -33 -13 -28 -33 -121 -36 -167 -1 -19 -8 -45 -14 -58 -7 -12 -10
-32 -7 -42 4 -11 2 -20 -4 -20 -5 0 -13 9 -16 20 -10 30 -58 27 -79 -6 -14
-20 -17 -46 -15 -138 1 -62 -2 -119 -7 -127 -13 -21 -14 -68 -3 -128 9 -42 19
-61 50 -90 49 -44 99 -120 99 -150 0 -28 41 -107 76 -145 25 -28 27 -29 52
-13 15 9 26 18 25 21 -2 3 15 24 37 47 22 23 40 50 40 60 0 18 16 33 35 34 6
0 9 8 7 18 -2 9 2 17 8 17 5 0 10 8 10 18 0 14 2 14 9 3 11 -17 39 -8 48 16
11 28 107 124 119 119 7 -3 21 4 32 15 12 10 25 19 31 19 5 0 11 3 13 8 2 4
34 33 71 65 60 50 82 62 109 58 4 0 5 6 2 14 -4 8 -2 15 4 15 6 0 12 -6 15
-12 3 -8 9 -3 16 12 9 18 52 44 159 97 139 68 161 77 222 87 14 2 39 10 55 16
17 7 60 13 97 13 40 1 68 6 68 13 0 5 7 19 15 30 15 19 15 19 35 -4 10 -13 16
-30 13 -37 -3 -10 2 -15 15 -15 13 0 28 -12 39 -30 9 -16 22 -30 28 -30 13 -1
75 -57 75 -69 0 -5 -5 -11 -11 -13 -23 -8 14 -48 41 -46 26 3 28 -4 14 -52 -7
-22 -6 -24 9 -11 9 7 38 13 64 13 63 0 81 5 86 26 4 13 5 11 6 -5 1 -18 9 -23
46 -29 25 -3 45 -11 45 -16 0 -6 7 -7 16 -4 21 8 45 -11 37 -30 -3 -8 1 -14
10 -14 8 0 17 6 19 12 3 9 9 8 22 -5 26 -26 56 -20 69 13 4 12 6 11 6 -3 1
-27 92 -18 102 11 10 27 29 37 40 21 6 -10 11 -11 17 -3 12 17 40 24 46 11 3
-8 5 -8 5 2 1 11 4 11 16 1 9 -7 15 -8 15 -2 0 14 27 23 46 15 9 -3 13 -12 10
-22 -6 -15 -5 -15 6 0 14 17 34 14 56 -8 28 -28 45 -11 32 33 -4 16 -9 21 -9
12 -1 -10 -2 -18 -3 -18 -2 0 -23 6 -48 14 -33 10 -46 19 -48 35 -2 11 1 21 7
21 15 0 14 30 -1 30 -7 1 -1 8 15 16 15 8 32 12 37 9 6 -4 7 1 3 11 -4 12 -3
15 5 10 8 -4 16 2 21 17 10 27 31 45 31 28 0 -6 6 -8 14 -5 8 3 11 14 9 28 -4
19 1 25 23 30 16 4 31 12 35 17 3 5 20 2 40 -8 19 -9 41 -18 49 -18 27 -3 140
-39 140 -46 0 -3 16 -6 36 -7 44 -2 51 -7 34 -27 -16 -20 4 -20 24 0 19 19 18
20 83 -11 31 -15 58 -35 60 -45 3 -10 11 -15 18 -13 7 3 25 -2 40 -12 14 -9
39 -24 55 -33 62 -34 141 -83 153 -95 7 -7 24 -19 39 -27 26 -14 76 -52 134
-101 17 -16 37 -28 43 -28 6 0 11 -4 11 -9 0 -14 34 -53 132 -152 47 -48 90
-94 95 -101 15 -23 72 -58 95 -58 48 0 72 32 92 122 l6 28 110 -3 c128 -2 138
3 119 60 -7 21 -22 49 -31 62 -22 29 -17 48 27 110 61 86 82 149 54 166 -6 4
-8 12 -6 19 2 6 1 20 -4 31 -7 19 -8 19 -8 -2 -1 -27 -29 -31 -37 -5 -13 40
-28 62 -43 62 -17 0 -45 27 -53 50 -2 7 -17 14 -33 16 -35 4 -55 27 -48 54 3
11 0 20 -6 20 -6 0 -11 5 -11 10 0 6 8 10 17 8 25 -5 75 76 78 125 3 55 -26
117 -67 145 -19 12 -39 22 -45 22 -15 0 -25 29 -17 52 3 10 0 25 -6 33 -7 8
-9 15 -5 15 4 0 2 7 -5 15 -16 19 -34 20 -27 1 8 -21 -19 -28 -35 -8 -9 11
-10 14 0 8 8 -4 12 -1 12 9 0 11 -5 15 -14 12 -9 -4 -16 3 -20 17 -7 29 -54
76 -75 76 -14 -1 -14 -2 1 -14 15 -11 14 -14 -11 -29 -27 -16 -29 -15 -45 2
-9 9 -13 21 -9 24 3 4 2 7 -4 7 -6 0 -13 -7 -17 -15 -5 -15 -47 -22 -45 -7 1
4 -2 22 -6 41 -7 31 -9 33 -22 16 -7 -11 -13 -13 -13 -7 0 21 -3 27 -37 62
-29 30 -33 41 -32 80 4 83 0 100 -33 134 -29 29 -41 34 -103 40 -38 4 -71 11
-73 16 -5 13 -32 13 -32 0 0 -5 6 -10 13 -10 6 0 -2 -10 -20 -21 -31 -20 -53
-19 -53 2 0 5 6 9 14 9 8 0 13 11 14 28 0 15 1 54 2 87 2 55 -4 107 -16 144
-4 11 -8 10 -19 -5 -13 -18 -14 -18 -21 0 -4 10 -2 21 5 26 20 12 -16 40 -51
40 -16 0 -52 -12 -79 -27 -42 -24 -52 -26 -69 -15 -17 11 -21 10 -18 0 2 -8
-1 -13 -7 -13 -5 0 -10 12 -10 27 0 34 -67 113 -73 86 -2 -10 -7 -18 -12 -18
-20 0 -40 13 -40 26 0 8 -5 14 -11 14 -7 0 -9 -18 -7 -49 4 -41 2 -48 -11 -43
-31 11 -43 52 -16 52 9 0 15 9 15 25 0 26 -9 32 -26 15 -6 -6 -30 -13 -55 -16
-24 -4 -54 -10 -66 -15 -23 -9 -37 1 -142 102 -51 50 -91 70 -91 47 -1 -9 -5
-7 -14 5 -19 24 -29 21 -22 -7 6 -24 -17 -56 -31 -42 -4 3 1 12 10 19 12 9 14
16 7 27 -7 10 -12 12 -17 4 -10 -14 -61 0 -88 24 -26 22 -102 124 -117 156
-12 28 -52 44 -110 45 -28 0 -48 -9 -88 -41z m25 -78 c-19 -28 -35 -58 -35
-66 0 -8 -5 -14 -11 -14 -5 0 -7 5 -4 10 3 6 -1 10 -9 10 -9 0 -16 9 -16 20 0
11 7 20 15 20 8 0 15 4 15 9 0 16 73 87 77 75 2 -6 -12 -35 -32 -64z m180 30
c3 -5 1 -10 -4 -10 -6 0 -11 5 -11 10 0 6 2 10 4 10 3 0 8 -4 11 -10z m-55 -4
c0 -11 -19 -15 -25 -6 -3 5 1 10 9 10 9 0 16 -2 16 -4z m-281 -57 c17 -6 31
-15 31 -20 0 -14 -40 -30 -68 -27 -22 2 -27 8 -27 31 -1 30 12 34 64 16z m-79
-19 c0 -5 -2 -10 -4 -10 -3 0 -8 5 -11 10 -3 6 -1 10 4 10 6 0 11 -4 11 -10z
m684 -171 c-3 -5 -10 -7 -15 -3 -5 3 -7 10 -3 15 3 5 10 7 15 3 5 -3 7 -10 3
-15z m479 -84 c19 -4 27 -11 24 -19 -3 -8 0 -19 6 -25 8 -8 5 -11 -11 -11 -12
0 -22 5 -22 11 0 5 -13 15 -30 20 -16 6 -30 14 -30 18 0 12 11 20 23 16 7 -2
25 -6 40 -10z m263 -33 c6 -4 8 -16 4 -27 -7 -19 -7 -19 -18 2 -18 33 -12 43
14 25z m-290 -169 c-4 -4 -11 -1 -16 7 -16 25 -11 35 7 17 9 -9 13 -20 9 -24z
m-2196 -49 c0 -8 -4 -12 -10 -9 -5 3 -10 10 -10 16 0 5 5 9 10 9 6 0 10 -7 10
-16z m1290 -4 c0 -5 7 -10 15 -10 8 0 15 5 15 10 0 6 8 10 18 10 14 0 15 -2 2
-10 -13 -9 -13 -10 0 -11 68 -4 163 -30 176 -47 5 -7 22 -15 37 -15 15 -1 29
-8 32 -14 2 -7 11 -13 20 -13 8 0 15 -6 15 -13 0 -7 10 -19 22 -27 12 -8 38
-32 58 -52 20 -21 41 -38 47 -38 15 0 55 -65 89 -145 28 -68 29 -75 29 -230 0
-146 -2 -163 -22 -199 -12 -22 -20 -43 -17 -47 6 -11 -36 -76 -72 -112 -47
-47 -256 -163 -314 -174 -37 -8 -108 -15 -172 -18 -46 -2 -58 1 -58 12 0 12
-3 13 -14 4 -15 -13 -38 -7 -78 21 -17 12 -29 15 -33 8 -8 -13 -29 -7 -123 36
-40 18 -75 40 -78 49 -4 8 -12 15 -19 15 -8 0 -19 16 -27 36 -7 19 -23 40 -36
47 -30 15 -68 83 -63 114 1 6 -3 14 -9 18 -5 3 -10 14 -10 24 0 10 -7 24 -15
31 -20 16 -20 44 0 37 8 -4 17 -2 20 3 9 14 -6 40 -24 40 -14 1 -14 2 2 11 18
11 24 39 7 39 -5 0 -10 5 -10 10 0 6 6 10 13 10 9 0 12 23 10 87 -2 106 3 135
28 162 10 11 19 24 19 28 0 5 9 15 20 23 11 8 20 18 20 23 0 11 72 88 77 83 5
-5 26 12 69 54 15 14 32 24 39 22 7 -1 28 11 46 27 18 17 36 28 41 25 4 -3 8
1 8 9 0 23 46 38 77 26 23 -8 30 -7 41 8 11 16 14 16 22 3 8 -12 10 -12 10 -1
0 7 6 11 15 7 8 -3 15 -1 15 4 0 6 5 10 10 10 6 0 10 -4 10 -10z m-90 -10 c0
-5 -4 -10 -10 -10 -5 0 -10 5 -10 10 0 6 5 10 10 10 6 0 10 -4 10 -10z m1554
-106 c5 -13 9 -14 20 -4 12 9 18 6 32 -15 17 -26 17 -28 -6 -45 -13 -9 -20
-22 -16 -29 4 -6 3 -11 -3 -11 -12 0 -37 49 -46 90 -7 31 8 42 19 14z m-194
-24 c0 -5 -5 -10 -11 -10 -5 0 -7 5 -4 10 3 6 8 10 11 10 2 0 4 -4 4 -10z
m180 -50 c0 -5 -4 -10 -10 -10 -5 0 -10 5 -10 10 0 6 5 10 10 10 6 0 10 -4 10
-10z m40 -52 c16 -14 21 -22 13 -25 -7 -3 -13 -9 -13 -14 0 -6 4 -8 8 -5 4 2
8 -4 9 -14 1 -10 -5 -21 -12 -24 -10 -3 -12 0 -8 11 4 11 2 14 -5 9 -9 -5 -9
0 -2 19 13 35 13 35 -10 35 -11 0 -20 7 -20 15 0 20 10 18 40 -7z m-20 -28 c0
-5 -5 -10 -11 -10 -5 0 -7 5 -4 10 3 6 8 10 11 10 2 0 4 -4 4 -10z m-75 -60
c3 -6 -1 -7 -9 -4 -18 7 -21 14 -7 14 6 0 13 -4 16 -10z m-2965 -10 c0 -5 -1
-11 -2 -13 -2 -1 7 -15 19 -30 21 -27 21 -58 2 -83 -5 -6 -5 -15 -1 -19 4 -5
2 -5 -5 -1 -7 4 -15 23 -18 44 -3 20 -9 44 -13 52 -10 19 -3 60 9 60 5 0 9 -4
9 -10z m3314 -155 c-7 -16 -24 -21 -24 -6 0 8 7 13 27 20 1 1 0 -6 -3 -14z
m96 11 c0 -3 -4 -8 -10 -11 -5 -3 -10 -1 -10 4 0 6 5 11 10 11 6 0 10 -2 10
-4z m-3390 -50 c0 -12 11 -37 25 -56 30 -41 33 -85 6 -100 -27 -14 -28 -13
-35 16 -14 54 -19 177 -7 170 6 -4 11 -17 11 -30z m3312 -1 c-2 -15 0 -25 7
-25 6 0 11 4 11 10 0 5 7 7 15 4 8 -4 15 -15 15 -26 0 -17 -3 -18 -15 -8 -8 7
-15 9 -15 5 0 -4 -7 -2 -15 5 -19 16 -34 5 -17 -12 15 -15 16 -48 2 -48 -5 0
-10 6 -10 13 0 8 -4 7 -10 -3 -8 -11 -10 -8 -7 15 2 17 7 38 10 48 4 9 9 24
12 32 8 25 23 17 17 -10z m42 9 c3 -8 2 -12 -4 -9 -6 3 -10 10 -10 16 0 14 7
11 14 -7z m-2397 -16 c-3 -8 -6 -5 -6 6 -1 11 2 17 5 13 3 -3 4 -12 1 -19z
m2503 -18 c5 8 12 11 15 8 10 -10 -2 -25 -24 -31 -13 -3 -21 1 -24 15 -5 16
-3 17 10 7 12 -10 16 -10 23 1z m-240 -35 c0 -8 -4 -15 -10 -15 -5 0 -7 7 -4
15 4 8 8 15 10 15 2 0 4 -7 4 -15z m75 -146 c-4 -17 -13 -33 -21 -36 -7 -2
-16 -14 -20 -26 -16 -50 -59 -57 -70 -12 -6 25 24 65 49 65 19 0 39 39 31 62
-6 19 -5 19 16 -2 16 -16 20 -28 15 -51z m52 -1 c-3 -7 -5 -2 -5 12 0 14 2 19
5 13 2 -7 2 -19 0 -25z m247 -8 c-6 -6 -10 -3 -10 10 0 13 4 16 10 10 7 -7 7
-13 0 -20z m-3 -103 c-8 -8 -11 -5 -11 12 0 12 -4 19 -10 16 -6 -3 -7 1 -4 10
6 14 9 13 21 -5 11 -16 12 -25 4 -33z m-2851 -17 c0 -5 -2 -10 -4 -10 -3 0 -8
5 -11 10 -3 6 -1 10 4 10 6 0 11 -4 11 -10z m2805 -102 c-7 -45 -18 -68 -31
-68 -16 0 -18 28 -4 64 12 33 40 35 35 4z m-3915 -74 c0 -15 -28 -26 -35 -14
-3 5 -3 21 1 35 6 24 7 24 20 8 7 -10 14 -23 14 -29z m1590 -53 c0 -5 -7 -11
-15 -15 -9 -3 -15 0 -15 9 0 8 7 15 15 15 8 0 15 -4 15 -9z m700 -36 c0 -47
-8 -54 -41 -38 -36 18 -37 31 -4 39 14 3 25 13 25 21 0 8 5 11 10 8 6 -3 10
-17 10 -30z m-642 12 c14 -17 0 -39 -20 -32 -24 9 -30 45 -8 45 10 0 22 -6 28
-13z m-28 -57 c0 -5 -4 -10 -10 -10 -5 0 -10 5 -10 10 0 6 5 10 10 10 6 0 10
-4 10 -10z m300 -34 c0 -3 -4 -8 -10 -11 -5 -3 -10 -1 -10 4 0 6 5 11 10 11 6
0 10 -2 10 -4z m60 -21 c0 -13 -4 -14 -20 -5 -11 6 -20 13 -20 15 0 3 9 5 20
5 11 0 20 -7 20 -15z m1952 -35 c-6 -15 -11 -19 -16 -12 -4 7 -1 18 6 26 17
19 20 14 10 -14z m155 -296 c-3 -3 -12 -4 -19 -1 -8 3 -5 6 6 6 11 1 17 -2 13
-5z"/>
<path d="M4740 7576 c0 -9 7 -16 16 -16 17 0 14 22 -4 28 -7 2 -12 -3 -12 -12z"/>
<path d="M4592 7572 c-7 -5 -10 -15 -7 -23 9 -26 -9 -41 -38 -30 -22 9 -28 6
-42 -16 -14 -20 -15 -31 -6 -49 15 -33 28 -30 42 10 7 19 21 37 30 39 10 3 21
18 25 33 4 16 12 32 18 36 15 11 -6 10 -22 0z"/>
<path d="M4181 7554 c0 -11 3 -14 6 -6 3 7 2 16 -1 19 -3 4 -6 -2 -5 -13z"/>
<path d="M4800 7557 c0 -9 9 -21 21 -27 31 -17 33 -7 4 20 -20 19 -25 20 -25
7z"/>
<path d="M4860 7502 c0 -4 9 -13 20 -20 22 -13 27 -3 8 16 -14 14 -28 16 -28
4z"/>
<path d="M4646 7474 c-9 -8 -16 -11 -16 -6 0 15 -46 -10 -61 -33 -7 -11 -16
-38 -20 -60 -4 -22 -12 -55 -18 -73 -8 -28 -8 -33 4 -28 8 3 17 -3 20 -15 6
-17 9 -18 22 -7 13 11 13 14 -4 28 -14 11 -17 22 -12 40 4 14 7 41 8 61 1 34
21 66 33 53 8 -7 61 20 77 40 11 13 11 16 -2 16 -9 0 -23 -7 -31 -16z"/>
<path d="M4715 7470 c3 -5 14 -10 23 -10 15 0 15 2 2 10 -20 13 -33 13 -25 0z"/>
<path d="M4765 7450 c-4 -6 6 -15 21 -20 15 -6 31 -13 35 -16 5 -3 9 0 9 5 0
6 -7 11 -15 11 -8 0 -15 4 -15 9 0 13 -28 22 -35 11z"/>
<path d="M4911 7443 c0 -10 4 -27 9 -38 6 -16 8 -12 8 18 -1 20 -5 37 -10 37
-4 0 -8 -8 -7 -17z"/>
<path d="M4449 7450 c-7 -21 -3 -66 5 -72 20 -14 26 -8 20 20 -7 28 -22 61
-25 52z"/>
<path d="M4840 7409 c0 -3 9 -23 21 -44 19 -36 20 -37 14 -10 -5 25 -35 71
-35 54z"/>
<path d="M4625 7390 c3 -5 8 -10 11 -10 2 0 4 5 4 10 0 6 -5 10 -11 10 -5 0
-7 -4 -4 -10z"/>
<path d="M4937 7353 c-6 -12 -1 -62 6 -70 4 -3 7 12 7 35 0 40 -4 51 -13 35z"/>
<path d="M4450 7314 c0 -14 4 -23 9 -20 5 3 7 15 4 26 -7 28 -13 25 -13 -6z"/>
<path d="M4430 7254 c0 -8 5 -12 10 -9 6 4 8 11 5 16 -9 14 -15 11 -15 -7z"/>
<path d="M4920 7250 c0 -5 5 -10 10 -10 6 0 10 5 10 10 0 6 -4 10 -10 10 -5 0
-10 -4 -10 -10z"/>
<path d="M4536 7241 c-5 -8 -2 -20 8 -29 17 -17 19 -9 7 22 -6 15 -10 16 -15
7z"/>
<path d="M4483 7214 c-7 -7 -13 -18 -13 -23 0 -6 6 -14 13 -18 6 -4 17 -17 23
-28 6 -11 20 -20 30 -20 14 0 18 -6 16 -22 -2 -12 3 -25 9 -29 9 -5 10 -2 6 9
-4 11 -1 17 8 17 8 0 15 3 15 6 0 14 -65 79 -76 76 -7 -1 -14 8 -16 22 -2 20
-5 22 -15 10z"/>
<path d="M4919 7228 c-1 -5 -2 -11 -3 -15 -1 -5 -5 -13 -9 -20 -4 -6 -4 -14 1
-17 13 -8 31 29 21 45 -5 8 -9 11 -10 7z"/>
<path d="M4840 7202 c0 -6 7 -13 16 -16 12 -5 14 -14 9 -38 -7 -31 -6 -32 9
-13 21 27 20 37 -9 58 -14 10 -25 14 -25 9z"/>
<path d="M4614 7180 c2 -21 55 -45 69 -31 6 6 21 11 33 11 13 0 26 5 29 10 4
6 -10 10 -35 10 -23 0 -51 5 -62 11 -13 7 -18 7 -14 1 3 -6 2 -13 -3 -16 -5
-4 -11 -1 -14 6 -2 8 -3 7 -3 -2z"/>
<path d="M4788 7192 c-16 -2 -28 -8 -28 -13 0 -13 47 -11 55 2 9 14 5 15 -27
11z"/>
<path d="M4830 7125 c0 -8 4 -15 10 -15 5 0 7 7 4 15 -4 8 -8 15 -10 15 -2 0
-4 -7 -4 -15z"/>
<path d="M4770 7100 c0 -5 5 -10 10 -10 6 0 10 5 10 10 0 6 -4 10 -10 10 -5 0
-10 -4 -10 -10z"/>
<path d="M4678 7078 c9 -9 15 -9 24 0 9 9 7 12 -12 12 -19 0 -21 -3 -12 -12z"/>
<path d="M6340 7120 c0 -5 5 -10 10 -10 6 0 10 5 10 10 0 6 -4 10 -10 10 -5 0
-10 -4 -10 -10z"/>
<path d="M6387 7559 c18 -11 38 -19 45 -16 7 3 -4 12 -24 21 -51 22 -60 20
-21 -5z"/>
<path d="M4192 6880 c7 -10 14 -18 15 -16 6 6 -9 36 -18 36 -5 0 -4 -9 3 -20z"/>
<path d="M5656 6861 c-4 -7 -5 -15 -2 -18 9 -9 19 4 14 18 -4 11 -6 11 -12 0z"/>
<path d="M6880 6850 c0 -5 5 -10 11 -10 5 0 7 5 4 10 -3 6 -8 10 -11 10 -2 0
-4 -4 -4 -10z"/>
<path d="M4178 6763 c-7 -10 -22 -18 -32 -18 -11 0 -21 -5 -23 -12 -4 -12 27
-12 57 1 22 9 73 1 78 -13 2 -6 9 -11 15 -11 8 0 7 4 -1 12 -7 7 -12 20 -12
31 0 14 -5 17 -20 12 -11 -4 -20 -2 -20 4 0 17 -28 13 -42 -6z"/>
<path d="M4284 6758 c3 -13 6 -29 6 -37 0 -11 5 -10 20 4 11 10 20 25 20 34 0
12 -3 12 -12 3 -17 -17 -29 -15 -22 3 4 8 1 15 -6 15 -8 0 -10 -8 -6 -22z"/>
<path d="M4053 6753 c-13 -2 -23 -10 -23 -18 0 -20 -28 -26 -33 -7 -4 13 -5
13 -6 -3 -1 -17 -8 -21 -35 -21 -19 0 -32 4 -30 8 3 4 1 8 -4 8 -6 0 -12 -6
-15 -14 -7 -17 -55 -27 -61 -12 -2 6 -5 3 -5 -8 -1 -12 -6 -16 -16 -12 -9 3
-18 -1 -21 -9 -4 -8 -17 -15 -30 -15 -25 0 -74 -19 -74 -30 0 -3 -39 -26 -87
-50 -49 -25 -89 -48 -91 -52 -2 -5 -15 -8 -28 -8 -13 0 -24 -4 -24 -10 0 -5
-7 -10 -15 -10 -9 0 -18 -7 -22 -15 -3 -9 -20 -23 -37 -32 -36 -19 -100 -81
-104 -103 -5 -23 -70 -80 -95 -83 -13 -1 -27 -13 -34 -29 -9 -20 -19 -28 -38
-28 -18 0 -25 -5 -25 -20 0 -11 -5 -17 -13 -15 -7 3 -18 -8 -26 -26 -8 -19
-18 -28 -27 -25 -8 3 -14 1 -14 -4 0 -6 5 -10 11 -10 8 0 7 -5 -2 -16 -8 -10
-15 -12 -17 -5 -2 6 -8 8 -14 5 -7 -4 -6 -9 1 -14 8 -5 7 -15 -4 -36 -8 -16
-15 -35 -15 -43 0 -23 -13 -4 -14 20 0 12 -7 24 -15 27 -9 3 -11 -2 -8 -14 3
-11 8 -36 12 -57 6 -36 5 -38 -15 -32 -20 6 -21 5 -10 -15 8 -16 9 -44 1 -108
-23 -183 -8 -363 35 -430 15 -22 11 -62 -6 -62 -4 0 -15 -11 -24 -25 l-17 -25
30 5 c26 4 29 3 24 -12 -9 -27 -35 -53 -45 -47 -5 3 -7 13 -4 21 3 8 1 11 -4
8 -13 -8 -50 -93 -50 -116 0 -10 -4 -20 -9 -23 -4 -3 -12 -38 -15 -77 -6 -54
-3 -87 10 -135 9 -35 20 -64 24 -64 4 0 7 20 8 45 0 25 -4 45 -9 45 -11 0 -12
57 0 64 4 3 10 36 13 73 5 72 28 129 56 141 33 13 101 67 102 80 0 6 7 12 15
12 7 0 19 8 25 18 8 14 9 12 4 -9 -4 -21 -1 -27 14 -31 11 -3 26 -2 33 3 10 6
8 9 -8 9 -28 0 -30 16 -3 30 11 6 20 7 20 2 0 -4 7 -17 15 -28 15 -19 16 -19
13 1 -3 19 4 27 20 24 4 -1 16 -2 27 -3 14 -1 19 -7 18 -21 -1 -12 7 -26 17
-33 13 -8 20 -9 20 -1 0 5 4 8 8 5 9 -5 14 -125 6 -138 -2 -3 -24 0 -48 7 -33
10 -46 11 -55 2 -9 -9 -14 -9 -20 2 -12 18 -31 5 -31 -22 -1 -20 -2 -21 -14
-5 -14 19 -32 25 -21 8 4 -6 -5 -20 -19 -31 -14 -11 -25 -23 -24 -27 1 -8 -8
-35 -24 -67 -5 -12 -12 -55 -16 -95 -13 -134 31 -259 86 -244 15 4 22 14 22
30 0 34 12 30 39 -13 21 -35 88 -79 100 -68 2 3 -10 26 -27 50 -18 25 -32 52
-32 60 0 8 -6 14 -12 13 -8 -2 -12 6 -11 20 2 12 -2 22 -8 22 -8 0 -9 16 -5
48 6 43 5 46 -9 28 -14 -19 -15 -18 -16 20 -1 21 -1 43 0 48 1 5 -1 16 -4 25
-5 13 -7 14 -15 1 -8 -13 -10 -13 -10 1 0 9 10 21 23 27 20 10 20 11 2 9 -15
-1 -19 3 -17 18 2 11 8 22 13 23 5 2 9 10 9 17 0 15 58 26 67 12 3 -5 9 -3 14
4 7 11 12 12 28 2 15 -10 21 -10 25 0 2 7 5 -1 5 -18 1 -47 20 -207 27 -235 4
-14 9 -50 11 -80 5 -83 14 -144 23 -155 10 -12 13 -37 11 -87 -1 -36 -3 -38
-35 -38 -19 0 -38 -5 -41 -10 -8 -12 -80 -2 -115 15 -33 17 -95 86 -92 103 2
7 -1 12 -5 11 -23 -4 -34 4 -47 34 -13 29 -14 30 -15 8 -1 -13 19 -52 44 -87
25 -34 45 -68 45 -74 0 -6 -13 -36 -29 -68 -16 -31 -32 -71 -35 -89 -4 -17
-24 -60 -45 -95 -58 -96 -76 -158 -76 -265 0 -109 13 -130 83 -136 38 -3 49
-11 106 -73 78 -84 133 -114 172 -94 22 12 27 12 34 0 6 -8 10 -28 10 -44 0
-58 23 -107 68 -147 25 -21 54 -39 66 -39 12 0 36 16 54 36 24 26 38 34 50 28
9 -4 29 -9 45 -12 15 -2 27 -8 27 -12 0 -16 88 -98 121 -113 19 -9 49 -15 68
-14 30 2 38 8 55 44 19 38 49 56 58 35 2 -5 15 -12 31 -16 21 -5 27 -3 27 10
0 11 5 14 16 10 9 -4 23 -1 30 5 11 9 14 8 14 -1 0 -15 72 -8 127 12 27 10 35
9 51 -5 25 -23 39 -21 78 8 43 33 59 32 95 -7 23 -26 29 -42 29 -77 0 -51 -19
-173 -29 -183 -3 -4 -45 -18 -92 -32 -47 -14 -142 -52 -212 -85 -70 -34 -129
-61 -132 -61 -3 0 -30 -15 -60 -34 -29 -19 -56 -32 -60 -28 -3 4 -11 -1 -16
-11 -6 -10 -27 -28 -47 -41 -44 -27 -71 -50 -159 -131 -36 -33 -71 -64 -79
-68 -8 -4 -14 -15 -14 -22 0 -8 -6 -15 -12 -15 -21 1 -128 -123 -128 -147 0
-13 -4 -23 -10 -23 -5 0 -10 5 -10 12 0 6 -13 -8 -30 -30 -18 -25 -27 -48 -24
-59 4 -13 3 -15 -4 -5 -7 11 -14 7 -31 -15 -44 -57 -167 -250 -194 -303 -16
-30 -46 -86 -67 -125 -22 -38 -40 -79 -40 -91 0 -16 -7 -21 -40 -22 -66 -4
-98 36 -165 208 -31 80 -83 206 -115 280 -59 138 -140 341 -157 395 -6 19 -23
37 -46 50 -36 20 -37 21 -37 80 0 56 26 193 45 240 8 19 8 19 -12 2 -12 -11
-24 -37 -28 -63 -4 -28 -10 -42 -17 -38 -7 5 -9 -1 -5 -15 3 -13 3 -20 0 -17
-4 3 -15 -1 -25 -11 -18 -16 -26 -73 -9 -73 11 0 22 -53 11 -60 -10 -6 -29
-97 -27 -129 2 -23 27 -44 27 -22 0 6 5 11 10 11 6 0 10 -7 10 -15 0 -8 -5
-15 -11 -15 -6 0 -3 -7 6 -16 12 -12 13 -19 5 -24 -6 -4 -11 -10 -11 -14 1 -3
-10 -24 -25 -45 -18 -28 -31 -38 -42 -34 -11 5 -14 2 -9 -10 4 -11 1 -17 -9
-17 -8 0 -12 -4 -9 -10 3 -5 0 -10 -7 -10 -7 0 -19 -9 -26 -20 -7 -12 -18 -17
-29 -14 -15 5 -16 4 -3 -5 13 -10 13 -12 0 -21 -8 -5 -25 -10 -37 -10 -20 0
-23 5 -21 41 1 29 -3 44 -15 51 -9 5 -17 15 -17 23 0 8 -8 18 -17 24 -14 8
-15 12 -4 25 14 17 7 66 -9 66 -6 0 -10 -4 -10 -10 0 -5 -5 -10 -10 -10 -6 0
-8 11 -4 25 4 17 1 27 -9 31 -9 3 -13 13 -10 27 5 18 3 20 -8 9 -11 -10 -18
-4 -41 34 -18 29 -27 53 -23 65 4 13 2 19 -9 19 -9 0 -16 -8 -16 -17 0 -15 -2
-14 -15 3 -8 10 -15 26 -15 35 0 9 -10 20 -23 24 l-22 7 22 6 c30 9 63 38 63
56 0 14 75 34 86 23 3 -2 -13 -19 -36 -37 -22 -17 -40 -40 -40 -51 0 -22 17
-25 39 -5 9 8 23 16 31 18 8 2 22 10 32 18 9 9 34 22 55 29 59 21 63 27 63
103 0 55 5 78 25 114 14 25 25 51 25 58 0 8 10 20 22 28 20 14 22 22 20 84 -4
99 -5 104 -17 104 -7 0 -26 18 -44 40 -24 30 -30 44 -22 53 6 8 6 18 0 27 -8
13 -10 13 -19 0 -13 -19 -13 -8 0 25 l10 27 49 -51 c44 -46 97 -79 109 -67 3
3 -7 10 -21 15 -14 5 -33 22 -44 36 -45 66 -75 94 -96 92 -25 -2 -31 21 -67
245 -28 179 -41 206 -74 156 -57 -87 -62 -377 -11 -540 5 -15 1 -18 -23 -18
-39 0 -92 -58 -92 -101 l0 -30 -50 7 c-57 7 -60 4 -63 -67 -2 -40 -5 -44 -29
-47 -31 -4 -78 -54 -78 -83 0 -21 75 -168 94 -184 6 -5 19 -26 28 -45 21 -43
38 -66 109 -144 48 -54 61 -78 101 -186 57 -154 56 -148 35 -188 -20 -37 -18
-60 14 -187 23 -90 51 -179 85 -275 13 -36 37 -108 55 -160 17 -52 47 -130 65
-173 19 -43 34 -83 34 -88 0 -22 81 -178 131 -254 97 -146 329 -359 513 -469
66 -40 89 -40 142 1 17 12 33 23 36 23 9 0 16 -50 7 -55 -12 -8 -1 -423 16
-622 l8 -83 32 0 c18 0 35 6 38 12 3 11 1 133 -3 133 -3 0 -7 58 -11 128 -2
38 -7 71 -12 74 -4 2 -8 21 -8 41 -2 95 -7 195 -13 236 -5 32 -4 46 4 46 13 0
10 50 -5 83 -5 13 -3 17 11 17 14 0 15 3 6 12 -9 9 -8 16 6 32 16 18 16 19 0
13 -14 -5 -18 -1 -18 18 0 14 5 25 11 25 5 0 7 5 4 10 -11 18 6 50 26 50 13 0
19 7 19 24 0 14 5 28 10 31 6 3 10 16 10 28 0 25 26 67 41 67 6 0 7 -9 3 -22
-3 -12 -7 -33 -8 -47 -1 -14 -5 -31 -9 -38 -4 -6 -3 -13 2 -15 6 -2 3 -18 -7
-37 -10 -21 -12 -36 -6 -38 7 -2 8 -25 3 -66 -4 -34 -5 -72 -3 -84 4 -15 0
-25 -15 -33 l-21 -11 20 -21 c24 -26 30 -128 8 -128 -9 0 -10 -3 -2 -8 13 -8
26 -56 25 -92 0 -44 19 -91 37 -89 26 3 70 -11 83 -27 6 -8 16 -11 21 -8 6 4
13 2 17 -3 3 -6 20 -14 36 -20 17 -5 37 -22 45 -39 18 -36 29 -44 57 -44 23 0
43 26 36 47 -5 15 14 26 22 13 13 -21 24 -8 31 35 9 62 24 57 24 -9 0 -53 1
-54 41 -75 31 -17 44 -19 55 -11 7 7 17 9 21 7 12 -8 40 16 45 38 2 12 10 19
21 17 10 -2 17 4 17 13 0 8 5 15 10 15 6 0 10 -5 10 -11 0 -8 5 -7 16 2 13 10
17 10 24 -1 7 -11 14 -12 32 -3 13 6 31 14 41 17 10 3 15 10 12 16 -3 5 -2 10
3 10 10 0 23 32 26 65 2 11 6 30 10 43 5 14 3 22 -4 22 -7 0 -10 22 -7 65 2
36 1 65 -2 65 -4 0 -7 64 -8 143 -1 189 -12 339 -26 355 -6 8 -10 27 -9 44 1
16 -1 27 -6 24 -5 -3 -17 20 -27 52 -31 100 -57 146 -114 200 -30 28 -60 52
-66 52 -7 0 -20 9 -30 20 -10 12 -25 18 -32 16 -15 -6 -16 -1 -4 22 5 10 11
46 14 82 3 36 6 65 7 65 2 0 7 29 20 120 8 50 8 71 0 73 -6 2 -7 9 -2 15 9 13
22 57 47 162 27 119 31 129 75 216 23 46 43 93 44 104 2 11 31 49 64 84 34 35
62 67 62 71 0 5 7 16 16 24 14 15 19 11 55 -45 56 -86 179 -237 268 -329 l54
-55 -4 -145 c-6 -202 -4 -369 4 -476 l7 -91 -43 -13 c-23 -7 -48 -14 -55 -16
-24 -7 -25 -35 -2 -66 20 -28 60 -162 96 -323 9 -38 25 -106 36 -150 11 -44
25 -105 32 -136 7 -31 16 -61 20 -67 4 -6 1 -22 -6 -34 -7 -13 -14 -45 -15
-73 -2 -27 -5 -77 -7 -110 -3 -33 -7 -138 -10 -232 l-5 -173 30 0 30 0 -2 63
c-1 34 -1 82 0 107 3 54 9 41 37 -87 l19 -83 218 0 c149 0 217 3 217 11 0 7
-11 8 -30 4 -18 -4 -30 -2 -30 3 0 6 -9 8 -20 5 -12 -3 -20 0 -20 6 0 7 -5 9
-10 6 -6 -4 -17 -1 -25 5 -8 7 -22 9 -31 6 -9 -4 -23 -1 -30 5 -10 8 -14 8
-14 0 0 -6 -7 -11 -15 -11 -8 0 -15 5 -15 11 0 6 -7 8 -16 5 -11 -4 -14 -1
-12 11 2 10 17 22 33 28 17 5 33 13 36 18 3 5 36 13 73 20 52 9 79 8 124 -2
31 -7 80 -17 107 -22 28 -6 57 -13 65 -16 24 -9 83 -2 104 13 23 16 112 19
121 4 10 -16 34 -12 56 9 21 19 60 29 90 23 9 -1 31 -34 50 -72 28 -57 38 -70
58 -70 20 0 22 3 17 26 -4 15 -10 40 -13 58 -3 17 -21 59 -40 94 -37 71 -34
90 17 117 16 8 31 24 35 35 3 11 10 20 15 20 5 0 7 6 4 13 -2 7 3 20 13 29 62
58 88 78 99 78 8 0 27 13 42 30 16 16 32 30 36 30 3 0 42 27 87 60 73 54 112
73 107 53 -3 -16 33 -140 60 -205 21 -53 36 -48 28 10 -3 26 -9 91 -12 144
l-7 98 39 -37 c22 -20 55 -59 75 -87 21 -30 44 -52 57 -54 12 -2 22 1 22 6 0
21 -27 72 -34 65 -4 -4 -4 0 0 10 4 13 1 17 -15 17 -12 0 -21 6 -21 15 0 8 -4
15 -9 15 -5 0 -15 16 -21 35 -6 19 -16 35 -21 35 -5 0 -9 11 -9 25 0 28 21 33
40 11 6 -8 33 -23 58 -32 26 -10 54 -24 64 -31 12 -11 18 -11 23 -3 4 7 3 15
-2 19 -5 3 -27 17 -49 30 -21 14 -41 28 -44 31 -3 4 -29 25 -59 49 -30 23 -67
58 -83 79 -16 20 -33 39 -38 42 -13 8 -56 111 -71 170 -7 30 -19 60 -25 65 -7
6 -22 35 -34 65 -12 30 -26 64 -30 75 -16 37 -22 80 -21 139 1 32 -5 86 -14
120 -8 33 -16 77 -18 98 -1 20 -6 34 -10 31 -5 -3 -22 1 -38 7 -21 9 -37 28
-55 68 -14 30 -23 60 -21 66 6 15 -16 147 -27 165 -5 7 -9 27 -11 44 -1 18
-18 69 -37 114 -20 45 -35 93 -35 107 0 15 -9 36 -19 47 -13 14 -18 34 -17 67
1 26 -1 41 -4 35 -8 -20 -33 -15 -33 6 0 11 -5 23 -11 26 -6 4 -8 13 -5 21 3
8 2 14 -2 14 -4 0 -16 17 -27 38 -11 20 -25 41 -32 45 -7 4 -13 13 -13 19 0
10 -50 78 -83 111 -11 11 -16 25 -12 35 4 9 10 40 15 67 5 28 13 64 19 80 8
25 19 87 21 118 0 16 135 -6 162 -26 26 -20 52 -17 32 3 -13 13 -172 70 -196
70 -11 0 -32 14 -46 32 -74 87 -144 127 -236 136 -85 7 -105 22 -96 70 12 59
18 68 69 90 59 27 89 28 151 1 37 -16 53 -18 68 -10 11 6 46 13 78 17 74 7
121 21 157 46 27 20 28 20 94 -1 l66 -21 44 29 c25 17 59 32 76 36 116 22 129
28 186 81 63 58 118 150 145 243 19 63 20 157 5 256 -14 89 -17 106 -24 185
-3 36 -8 72 -10 81 -3 8 10 30 31 50 19 18 42 49 49 66 8 18 19 33 24 33 6 0
11 4 11 10 0 18 -61 -25 -66 -47 -4 -13 -10 -23 -16 -23 -5 0 -6 6 -2 13 4 6
-2 4 -13 -5 -30 -27 -129 -24 -185 4 -23 13 -44 23 -46 24 -1 1 0 20 4 42 4
23 10 39 15 36 5 -3 9 -1 9 5 0 5 -4 13 -10 16 -19 12 0 125 21 125 4 0 10 19
14 43 4 23 16 59 26 79 21 42 23 52 9 43 -5 -3 -10 -2 -10 4 0 5 5 13 10 16 6
3 7 17 4 30 -9 37 12 66 44 59 24 -5 25 -4 10 9 -10 8 -14 18 -10 23 4 5 -3 0
-15 -10 -20 -16 -23 -17 -28 -3 -4 8 -5 30 -3 48 3 30 8 35 47 46 24 7 48 16
55 21 6 5 21 12 34 15 17 4 22 1 22 -13 0 -20 33 -37 38 -21 4 12 23 15 21 4
-3 -20 2 -34 11 -28 6 4 10 -15 10 -51 0 -32 -2 -55 -5 -53 -5 5 -13 43 -14
67 -1 7 -5 10 -11 7 -13 -8 -13 -85 0 -85 32 0 -30 -159 -88 -227 -43 -50 -62
-76 -62 -84 0 -11 29 -4 42 9 7 7 16 12 22 12 11 0 78 77 87 99 3 9 12 16 20
16 7 0 19 18 25 40 11 38 12 39 18 14 4 -14 6 -41 4 -60 -4 -44 13 -52 31 -14
8 17 20 36 28 43 17 18 17 149 -1 222 -22 87 -44 130 -66 130 -13 0 -20 7 -20
18 0 25 -59 45 -107 36 -21 -5 -46 -7 -55 -5 -10 1 -18 -3 -18 -9 0 -7 -8 -9
-20 -5 -11 4 -20 2 -20 -4 0 -6 -7 -11 -15 -11 -11 0 -15 12 -15 45 0 54 17
95 40 95 10 0 25 11 34 25 9 14 23 25 30 25 8 0 37 7 65 17 37 11 53 22 57 38
3 12 22 33 43 46 53 33 71 61 82 130 10 61 4 93 -12 68 -16 -27 -21 3 -26 148
-2 81 -9 162 -14 178 -8 25 -7 32 11 44 19 13 30 68 11 57 -5 -3 -7 -15 -4
-26 3 -11 0 -20 -6 -20 -6 0 -11 5 -11 10 0 6 -4 10 -10 10 -5 0 -10 -9 -10
-20 0 -11 -4 -20 -10 -20 -5 0 -13 -1 -17 -2 -4 -2 -8 17 -9 41 -2 35 1 44 17
48 10 3 19 14 19 24 0 21 -20 27 -20 7 0 -7 -11 -21 -25 -30 -21 -16 -25 -16
-39 -3 -8 9 -13 23 -10 33 5 14 4 15 -5 2 -9 -13 -13 -12 -31 8 -11 12 -25 22
-30 22 -4 0 -11 14 -15 31 -4 17 -13 33 -21 36 -8 3 -14 11 -14 18 0 19 -33
28 -45 12 -18 -25 -36 -8 -29 29 4 22 2 34 -5 34 -6 0 -11 -7 -11 -15 0 -8 -4
-15 -10 -15 -5 0 -10 7 -10 16 0 17 -30 52 -39 44 -3 -3 -7 5 -9 18 -2 14 -10
22 -23 22 -11 0 -22 7 -25 15 -4 8 -12 15 -19 15 -25 0 -21 -25 9 -59 49 -53
57 -61 67 -61 5 0 9 -9 9 -20 0 -11 5 -20 11 -20 5 0 7 4 4 10 -3 5 0 7 8 4
30 -11 35 -77 32 -410 -1 -183 1 -337 5 -344 10 -16 60 45 60 75 0 24 22 49
34 38 3 -4 12 2 20 12 7 10 18 15 25 11 13 -9 5 -46 -22 -98 -16 -32 -23 -37
-42 -32 -17 4 -27 0 -36 -14 -8 -13 -19 -17 -32 -14 -16 4 -19 2 -14 -12 4
-10 1 -23 -6 -30 -19 -19 -96 -38 -127 -31 -15 3 -56 1 -90 -5 -34 -6 -64 -9
-67 -6 -3 2 -1 37 4 76 7 55 7 70 -3 66 -8 -3 -17 12 -25 40 -7 24 -17 44 -21
44 -4 0 -8 7 -8 15 0 22 -89 85 -120 85 -15 0 -30 3 -34 7 -3 4 -14 8 -24 8
-9 1 -34 6 -54 10 -27 5 -38 4 -38 -5 0 -7 6 -10 14 -7 8 3 20 -1 26 -9 7 -8
17 -14 22 -14 29 0 159 -75 179 -104 4 -5 9 0 12 10 4 17 5 16 6 -3 0 -12 8
-28 16 -37 36 -36 33 -416 -4 -484 -14 -27 -82 -85 -134 -115 -40 -24 -62 -29
-140 -33 -50 -2 -130 -6 -176 -9 -56 -3 -88 -1 -98 7 -8 6 -28 12 -46 13 -74
5 -112 33 -154 116 -29 57 -41 112 -48 228 -3 52 -11 101 -17 108 -16 20 15
152 41 173 4 3 21 24 40 48 18 23 37 40 42 36 5 -3 16 2 25 10 8 9 22 20 32
25 13 7 14 12 4 24 -11 12 -18 12 -54 -6 -23 -12 -50 -29 -60 -39 -10 -10 -25
-18 -33 -18 -8 0 -15 -5 -15 -11 0 -6 -7 -8 -15 -5 -19 7 -33 -23 -15 -34 14
-8 7 -55 -15 -97 -8 -15 -11 -40 -8 -62 5 -30 4 -34 -8 -25 -47 37 -221 44
-329 13 -77 -23 -75 -22 -62 -6 10 12 0 61 -19 92 -4 6 -10 25 -14 42 -5 24
-23 46 -66 79 -32 26 -59 51 -59 55 0 12 -40 36 -72 44 -25 6 -28 5 -28 -19 0
-14 4 -26 9 -26 5 0 29 -20 53 -45 24 -24 48 -45 53 -45 13 0 48 -39 62 -70
31 -66 35 -236 8 -280 -4 -7 -1 -23 6 -37 9 -17 10 -26 2 -31 -11 -8 -35 -98
-42 -159 -1 -14 -30 -31 -58 -36 -10 -1 -22 -5 -28 -9 -11 -6 -52 -16 -100
-23 -16 -2 -73 -12 -125 -21 -88 -15 -127 -14 -235 1 -74 11 -109 18 -119 26
-55 42 -95 84 -113 120 -13 24 -23 37 -23 29 -1 -21 -29 30 -30 53 0 11 -5 15
-11 11 -12 -7 -4 -71 11 -90 5 -5 7 -20 3 -32 -3 -12 -1 -22 3 -22 5 0 15 -13
22 -30 7 -16 23 -32 35 -36 12 -4 24 -10 27 -13 3 -4 19 -17 37 -29 20 -15 30
-28 26 -40 -2 -10 2 -30 11 -46 13 -27 15 -27 25 -8 12 22 6 33 -14 25 -9 -3
-13 2 -12 16 1 23 17 27 35 9 18 -18 49 -19 56 -3 4 11 19 14 56 12 61 -4 78
-22 47 -48 -19 -15 -25 -15 -48 -4 -22 12 -30 12 -52 0 -16 -8 -29 -10 -33 -4
-3 5 -10 7 -15 3 -14 -8 -1 -24 21 -24 10 0 20 -6 23 -14 8 -21 47 -28 47 -8
1 16 1 16 10 1 11 -19 89 -17 152 2 29 9 41 9 53 -1 10 -8 15 -9 15 -1 0 6 5
11 10 11 6 0 9 -3 8 -7 -3 -15 35 -133 43 -133 4 0 9 8 12 18 3 13 6 11 15
-11 7 -16 16 -26 21 -22 6 3 19 -5 30 -17 12 -12 21 -18 21 -12 0 5 4 4 8 -2
5 -8 23 -9 60 -3 62 9 103 3 151 -22 21 -11 45 -16 60 -13 21 5 23 3 11 -6
-12 -9 -11 -10 7 -5 12 3 32 1 44 -5 49 -27 329 -1 329 30 0 20 63 34 155 35
l100 1 40 38 c22 20 50 44 63 53 12 8 22 23 22 32 0 32 38 43 151 43 89 0 109
2 114 16 4 10 9 12 16 5 14 -14 61 7 54 25 -2 6 0 12 5 12 6 0 10 -7 10 -15 0
-19 5 -19 35 1 17 11 24 23 21 38 -2 11 -1 15 1 9 7 -19 21 -16 28 7 3 11 11
20 16 20 5 0 9 8 9 18 0 10 4 22 9 28 5 5 17 38 25 74 9 36 18 73 20 82 3 9
10 27 17 39 9 18 9 24 0 27 -13 4 74 52 96 52 7 0 13 5 13 10 0 6 15 10 34 10
19 0 38 5 41 10 3 6 14 10 24 10 17 0 18 -11 15 -141 -2 -78 -8 -176 -13 -218
-6 -42 -16 -114 -22 -161 -6 -47 -14 -92 -19 -101 -5 -9 -7 -34 -5 -55 3 -22
0 -68 -6 -104 -5 -36 -11 -83 -13 -105 -2 -22 -6 -64 -9 -93 -3 -29 -12 -61
-21 -71 -17 -18 -19 -52 -10 -117 4 -26 2 -44 -5 -48 -6 -4 -11 -16 -11 -27 0
-10 -5 -19 -11 -19 -5 0 -7 -5 -3 -11 12 -20 -18 -129 -42 -152 -13 -12 -24
-28 -24 -34 0 -7 -4 -13 -9 -13 -13 0 -24 34 -12 38 6 2 11 8 11 14 0 6 -33
-21 -72 -61 -40 -39 -87 -82 -105 -94 -18 -12 -33 -25 -33 -29 0 -16 24 -7 50
20 49 50 110 94 110 79 0 -8 -12 -22 -26 -32 -15 -10 -23 -22 -20 -31 3 -9 -1
-14 -14 -14 -11 0 -20 -6 -20 -13 0 -19 -36 -50 -49 -43 -5 4 -12 2 -15 -3 -6
-10 -94 -61 -104 -61 -4 0 4 7 16 16 14 10 21 22 17 31 -4 12 -2 13 7 5 10 -8
16 -4 25 14 6 13 8 24 5 24 -19 0 -72 -26 -77 -37 -2 -8 0 -11 5 -8 6 3 10 2
10 -3 0 -16 -13 -22 -27 -11 -10 9 -13 8 -13 -1 0 -10 -3 -10 -15 0 -8 7 -16
9 -16 4 -1 -5 -2 -13 -4 -19 -1 -5 -3 -16 -3 -24 -1 -8 -5 -12 -8 -8 -4 3 -12
0 -20 -7 -7 -8 -24 -11 -40 -8 -17 3 -25 1 -21 -5 4 -6 -11 -18 -33 -27 -49
-19 -54 -20 -47 -3 3 8 -3 14 -14 14 -19 2 -23 -6 -20 -39 2 -11 -5 -18 -14
-18 -9 0 -30 -13 -47 -30 -16 -16 -34 -30 -39 -30 -5 0 -8 -3 -8 -7 1 -5 1
-15 -1 -23 -1 -11 -4 -9 -10 5 -6 14 -9 15 -9 5 -1 -9 -26 -28 -60 -43 -66
-30 -81 -33 -81 -14 0 9 -2 9 -8 0 -4 -6 -29 -21 -55 -32 -41 -18 -62 -20
-169 -16 -68 3 -132 7 -143 9 -11 2 -30 5 -42 5 -12 1 -37 17 -56 36 -32 33
-56 47 -42 25 10 -16 -1 -12 -41 15 -21 14 -42 35 -48 47 -11 20 -19 23 -104
32 -18 2 -41 11 -52 21 -15 13 -20 14 -20 5 0 -9 -5 -7 -15 6 -14 18 -16 18
-29 2 -7 -10 -21 -18 -30 -18 -19 0 -22 16 -3 23 24 10 -21 7 -47 -3 -21 -7
-26 -6 -26 5 0 8 -12 18 -27 22 -40 10 -47 10 -58 -4 -15 -18 -104 4 -134 33
-16 16 -36 24 -60 24 -26 1 -55 14 -106 48 -73 50 -129 114 -170 197 -28 56
-46 86 -61 106 -18 24 -37 96 -31 118 3 12 2 21 -3 21 -7 0 -10 24 -10 90 -1
37 -15 100 -32 137 -6 11 -7 26 -3 32 4 7 2 17 -3 24 -15 18 -43 183 -36 212
5 21 3 25 -15 25 -12 0 -21 5 -21 10 0 6 6 10 14 10 22 0 25 12 16 50 -6 27
-8 29 -9 11 -1 -13 -4 -21 -8 -18 -11 12 -12 57 -2 84 6 17 6 30 -1 38 -6 7
-10 35 -10 61 1 191 -2 264 -10 269 -13 8 -4 143 10 160 8 9 18 11 28 6 10 -4
37 -15 62 -23 25 -9 59 -21 76 -28 35 -15 104 -6 104 13 0 27 -16 38 -41 28
-17 -6 -30 -5 -43 4 -10 8 -24 11 -32 8 -8 -3 -14 0 -14 6 0 6 -7 11 -15 11
-8 0 -15 4 -15 9 0 5 -16 12 -36 16 -20 3 -43 13 -51 21 -8 8 -19 11 -25 8 -6
-4 -14 0 -19 7 -4 8 -16 14 -26 14 -11 0 -19 9 -21 23 -3 18 1 22 24 22 39 0
277 -70 287 -84 14 -22 25 17 20 71 -5 43 -2 56 10 66 9 7 21 34 26 61 7 41
18 59 63 102 29 28 56 50 60 48 3 -2 27 5 53 16 26 11 51 18 55 15 11 -7 60
16 60 27 0 15 -183 -15 -204 -34 -6 -4 -17 -8 -26 -8 -10 0 -35 -20 -57 -44
-42 -46 -71 -121 -76 -194 -1 -27 -6 -41 -14 -38 -6 3 -14 -1 -16 -8 -6 -16
-89 -6 -157 18 -25 9 -55 16 -68 16 -20 0 -23 5 -22 33 1 17 1 35 0 40 -3 10
-3 46 0 50 1 1 4 11 6 22 2 11 6 34 9 50 5 27 4 28 -6 8 -12 -22 -39 -39 -39
-24 0 4 7 22 16 39 10 21 12 37 6 49 -5 10 -8 77 -7 148 1 72 -2 133 -7 136
-5 3 -10 46 -12 96 -1 49 -6 95 -10 101 -4 6 -2 21 5 33 6 12 11 39 11 61 -1
27 4 38 14 38 8 0 14 4 14 8 0 15 78 92 94 92 8 0 23 13 32 29 10 17 23 27 31
24 12 -5 18 8 14 30 -1 5 4 5 10 1 6 -3 14 -3 18 2 3 5 30 20 59 33 29 14 58
31 64 38 6 7 20 13 32 13 12 0 48 13 79 29 31 16 57 27 57 24 0 -3 7 0 15 7 9
7 18 10 21 7 3 -3 -9 -13 -26 -22 -23 -12 -29 -20 -22 -27 8 -8 15 -7 26 3 40
36 50 42 76 44 16 2 38 12 50 23 12 11 36 23 53 27 18 4 37 9 42 11 6 2 25 7
43 10 33 6 36 11 26 38 -6 16 -10 17 -51 9z m-980 -1050 c-4 -25 13 -118 32
-180 5 -14 3 -23 -4 -23 -16 0 -38 39 -52 90 -14 54 -14 87 0 123 13 35 29 28
24 -10z m632 -83 c3 -5 1 -10 -4 -10 -6 0 -11 5 -11 10 0 6 2 10 4 10 3 0 8
-4 11 -10z m2662 -128 c12 10 12 7 2 -15 -7 -15 -15 -27 -18 -27 -3 0 -16 -3
-28 -6 -28 -8 -30 8 -6 36 11 13 21 16 27 10 6 -6 14 -5 23 2z m-1527 -95 c0
-7 5 -6 12 1 17 17 26 15 33 -9 5 -14 13 -19 26 -16 10 3 22 1 25 -4 3 -5 14
-9 24 -9 15 0 20 -11 27 -52 5 -29 7 -61 5 -70 -4 -18 -28 -25 -34 -10 -5 13
-146 62 -178 62 -15 0 -59 -10 -96 -22 -38 -12 -76 -23 -86 -24 -9 0 -24 -4
-32 -7 -26 -10 -31 20 -12 79 13 40 22 54 36 54 10 0 21 -6 24 -12 3 -9 8 -8
16 5 6 9 19 17 28 17 10 0 22 4 28 9 18 18 154 25 154 8z m1495 -7 c17 -19 17
-20 -1 -27 -10 -4 -19 -2 -22 5 -2 7 -9 8 -20 3 -9 -5 -37 -14 -62 -21 -54
-14 -77 -21 -199 -66 -52 -19 -107 -34 -123 -34 -32 0 -47 23 -32 48 10 16 75
39 133 47 18 2 41 7 51 10 10 3 31 7 46 10 28 3 99 19 159 35 46 12 51 11 70
-10z m-305 -14 c0 -3 -4 -8 -10 -11 -5 -3 -10 -1 -10 4 0 6 5 11 10 11 6 0 10
-2 10 -4z m-3010 -66 c0 -5 -2 -10 -4 -10 -3 0 -8 5 -11 10 -3 6 -1 10 4 10 6
0 11 -4 11 -10z m1888 -97 c19 -9 32 -23 32 -33 0 -13 6 -17 19 -13 15 4 21
-2 26 -28 4 -18 11 -40 15 -49 28 -53 50 -112 45 -120 -4 -6 -15 -10 -26 -10
-20 0 -26 -24 -9 -35 15 -9 12 -25 -5 -25 -12 0 -14 -4 -7 -16 5 -9 7 -25 4
-36 -5 -20 16 -68 30 -68 4 0 8 7 8 15 0 8 -7 15 -16 15 -20 0 -15 32 6 37 13
4 13 3 0 -6 -13 -10 -13 -12 0 -21 8 -6 26 -8 40 -4 31 7 51 24 27 24 -9 0
-21 9 -27 19 -14 27 -13 32 8 29 9 -2 16 3 14 10 -1 6 2 12 8 12 6 0 10 -5 10
-11 0 -7 8 -6 23 3 15 11 39 14 80 10 53 -4 57 -6 57 -29 0 -22 -2 -24 -15
-13 -12 10 -15 10 -15 -3 0 -9 8 -21 18 -26 13 -7 19 -23 20 -54 2 -38 -2 -48
-33 -76 -19 -17 -35 -28 -35 -24 0 4 -6 -2 -14 -12 -8 -11 -12 -23 -10 -27 3
-5 1 -8 -4 -8 -6 0 -12 7 -16 15 -3 8 -13 15 -23 15 -15 0 -16 2 -3 10 13 8
12 10 -2 10 -10 0 -18 -4 -18 -10 0 -5 -8 -10 -17 -10 -16 0 -16 2 -3 11 11 8
7 9 -16 4 -28 -5 -34 -2 -53 27 -11 18 -21 29 -21 23 1 -5 7 -18 14 -28 16
-20 10 -57 -8 -57 -7 0 -22 -9 -35 -21 -26 -25 -41 -17 -23 12 10 16 10 20 -3
25 -9 4 -21 -1 -29 -11 -7 -10 -18 -15 -25 -11 -6 4 -22 1 -34 -7 -55 -35
-145 -26 -191 19 -14 15 -26 21 -26 15 0 -7 -5 -9 -10 -6 -6 3 -14 -5 -20 -19
-11 -30 -17 -32 -41 -10 -13 12 -37 16 -90 15 -89 -1 -152 13 -182 40 -12 11
-30 27 -40 37 -20 19 -19 53 2 60 9 3 11 0 6 -8 -5 -8 -3 -11 6 -8 8 3 19 14
25 26 8 17 13 19 24 9 10 -10 10 -8 2 9 -10 19 -3 46 12 45 3 0 13 2 21 5 12
5 13 9 4 20 -7 8 -7 14 -2 14 6 0 19 -11 29 -25 21 -28 34 -32 34 -10 0 8 -7
15 -15 15 -8 0 -15 5 -15 10 0 14 27 13 36 -1 3 -6 18 -9 33 -6 15 3 33 2 41
-4 12 -7 11 -9 -5 -9 -14 0 -16 -3 -8 -8 7 -5 35 -8 63 -7 38 1 49 -2 47 -13
-3 -21 39 -34 53 -16 9 10 9 14 1 14 -6 0 -11 8 -11 18 -1 21 -34 62 -52 62
-8 0 -6 5 5 11 18 10 18 11 0 26 -16 13 -17 14 0 9 23 -7 22 6 -3 27 -17 14
-18 21 -10 37 13 24 30 26 30 5 0 -8 5 -15 11 -15 19 0 5 45 -16 48 -35 6 -46
12 -40 22 4 7 13 6 26 -1 17 -8 24 -7 36 8 8 10 12 12 8 5 -8 -16 4 -54 15
-47 4 2 10 18 12 34 5 35 -13 47 -44 30 -11 -6 -22 -8 -25 -5 -5 5 62 36 78
36 5 0 9 7 9 16 0 11 6 15 19 11 14 -3 17 0 14 14 -4 14 2 20 23 24 16 3 40 9
54 14 29 10 62 5 108 -16z m1457 -133 c-3 -5 -11 -10 -16 -10 -6 0 -7 5 -4 10
3 6 11 10 16 10 6 0 7 -4 4 -10z m-2215 -206 c0 -8 5 -12 10 -9 6 4 8 11 5 16
-4 5 -1 9 4 9 6 0 11 -5 11 -11 0 -8 5 -7 16 1 13 12 14 10 3 -16 -7 -16 -14
-30 -15 -32 -1 -2 -21 6 -45 17 -33 16 -45 18 -51 9 -4 -7 -8 -8 -8 -2 0 17
23 34 47 34 14 0 23 -6 23 -16z m1525 -12 c-2 -2 -14 0 -27 4 -22 7 -22 7 -3
14 17 6 41 -8 30 -18z m-191 3 c-4 -8 -8 -15 -10 -15 -2 0 -4 7 -4 15 0 8 4
15 10 15 5 0 7 -7 4 -15z m126 -1 c0 -8 9 -14 19 -14 11 0 23 -4 26 -10 7 -12
-1 -12 -44 -4 -17 4 -31 12 -31 19 0 8 -6 15 -12 18 -7 2 -1 4 15 4 16 0 27
-5 27 -13z m-186 -26 c19 -18 19 -18 0 -18 -10 0 -25 -10 -32 -21 -17 -26 -28
-16 -35 32 -5 34 -4 36 21 31 14 -3 35 -13 46 -24z m-1114 12 c0 -5 -4 -10
-10 -10 -5 0 -10 5 -10 10 0 6 5 10 10 10 6 0 10 -4 10 -10z m1268 -12 c14
-14 16 -28 2 -28 -5 0 -14 9 -20 20 -12 22 -1 27 18 8z m-648 -228 c0 -5 -4
-10 -9 -10 -6 0 -13 5 -16 10 -3 6 1 10 9 10 9 0 16 -4 16 -10z m-50 -11 c0
-8 -36 -19 -64 -19 -12 0 -16 3 -10 9 15 15 74 23 74 10z m-105 -9 c18 -8 17
-9 -7 -9 -15 -1 -30 4 -33 9 -7 12 12 12 40 0z m-2651 -880 c8 -41 22 -92 30
-112 21 -48 20 -55 -4 -63 -11 -3 -20 -11 -20 -17 0 -5 7 -7 16 -4 15 6 15 4
2 -16 -8 -12 -19 -23 -25 -25 -13 -5 -27 62 -17 78 4 6 0 15 -7 20 -8 5 -17 3
-21 -4 -4 -7 -6 14 -4 46 3 31 1 57 -5 57 -5 0 -9 -12 -9 -27 0 -14 -3 -24 -6
-20 -9 9 -11 68 -3 73 4 2 5 28 2 58 -5 47 4 111 25 181 3 12 11 -14 19 -65 7
-47 19 -119 27 -160z m1102 175 c10 -8 14 -15 7 -15 -19 0 -43 11 -43 21 0 13
14 11 36 -6z m2650 -102 c-11 -11 -17 4 -9 23 7 18 8 18 11 1 2 -10 1 -21 -2
-24z m-2644 5 c-7 -7 -12 -8 -12 -2 0 6 3 14 7 17 3 4 9 5 12 2 2 -3 -1 -11
-7 -17z m-58 -24 c3 -8 2 -12 -4 -9 -6 3 -10 10 -10 16 0 14 7 11 14 -7z m96
-14 c0 -5 -2 -10 -4 -10 -3 0 -8 5 -11 10 -3 6 -1 10 4 10 6 0 11 -4 11 -10z
m2725 -30 c3 -5 1 -10 -4 -10 -6 0 -11 5 -11 10 0 6 2 10 4 10 3 0 8 -4 11
-10z m-2601 -15 c-4 -10 0 -15 15 -15 12 0 21 -6 21 -15 0 -8 4 -15 10 -15 5
0 7 -7 3 -16 -5 -15 -8 -15 -17 -2 -6 8 -19 17 -28 21 -18 6 -24 37 -11 50 10
11 13 8 7 -8z m-121 -10 c10 -7 17 -22 15 -32 -3 -15 -7 -12 -26 15 -24 34
-20 41 11 17z m241 -20 c3 -8 12 -15 20 -15 7 0 16 -7 20 -15 3 -8 13 -15 22
-15 8 0 14 -6 12 -12 -3 -7 -13 -13 -24 -13 -23 0 -44 -24 -37 -42 3 -7 0 -13
-7 -13 -8 0 -9 10 -5 30 4 17 3 30 -2 29 -22 -4 -34 3 -31 19 2 10 -2 16 -10
14 -8 -1 -11 2 -7 8 4 6 15 8 26 5 21 -7 25 5 7 23 -8 8 -8 12 -1 12 6 0 13
-7 17 -15z m2634 -14 c3 -8 -1 -12 -9 -9 -7 2 -15 10 -17 17 -3 8 1 12 9 9 7
-2 15 -10 17 -17z m-2528 -52 c0 -6 -4 -7 -10 -4 -5 3 -10 11 -10 16 0 6 5 7
10 4 6 -3 10 -11 10 -16z m2497 -16 c-9 -9 -20 -13 -24 -9 -4 4 -1 11 7 16 25
16 35 11 17 -7z m-2523 -27 c4 -18 11 -23 25 -19 25 6 36 -14 18 -35 -8 -9
-12 -23 -10 -29 6 -18 -12 -16 -27 2 -10 12 -10 18 1 33 11 14 11 15 -1 5 -17
-16 -38 -17 -23 -2 7 7 8 21 3 40 -5 16 -5 29 0 29 4 0 11 -11 14 -24z m31 14
c3 -5 2 -10 -4 -10 -5 0 -13 5 -16 10 -3 6 -2 10 4 10 5 0 13 -4 16 -10z m-65
-30 c0 -5 -2 -10 -4 -10 -3 0 -8 5 -11 10 -3 6 -1 10 4 10 6 0 11 -4 11 -10z
m2390 -9 c5 7 12 10 16 6 8 -7 -14 -37 -27 -37 -5 0 -8 12 -8 28 1 19 3 21 6
8 4 -15 7 -16 13 -5z m-3876 -6 c3 -8 1 -15 -4 -15 -6 0 -10 7 -10 15 0 8 2
15 4 15 2 0 6 -7 10 -15z m4015 -7 c13 -21 13 -22 -2 -9 -10 7 -17 10 -17 5 0
-5 -5 -2 -10 6 -8 13 -10 12 -10 -4 0 -11 -3 -17 -6 -13 -10 10 4 37 18 37 7
0 19 -10 27 -22z m-185 -6 c3 -5 -1 -9 -9 -9 -8 0 -12 4 -9 9 3 4 7 8 9 8 2 0
6 -4 9 -8z m-3814 -39 c0 -22 -2 -25 -10 -13 -13 20 -13 40 0 40 6 0 10 -12
10 -27z m50 -33 c0 -5 -4 -10 -10 -10 -5 0 -10 5 -10 10 0 6 5 10 10 10 6 0
10 -4 10 -10z m97 -162 c-2 -32 0 -58 5 -58 14 0 -3 -44 -22 -57 -10 -7 -21
-24 -24 -38 -4 -15 -11 -23 -17 -19 -6 3 -9 15 -6 25 3 10 -6 62 -19 116 -14
54 -21 104 -17 113 8 17 10 27 12 55 1 16 10 11 47 -29 44 -49 45 -50 41 -108z
m1643 102 c0 -5 -7 -10 -16 -10 -8 0 -12 5 -9 10 3 6 10 10 16 10 5 0 9 -4 9
-10z m-1813 -38 c7 -5 22 -44 33 -88 11 -43 29 -103 41 -133 11 -29 17 -62 14
-72 -4 -11 -2 -19 5 -19 6 0 5 -11 -5 -30 -14 -27 -18 -29 -36 -17 -26 15 -83
117 -100 177 -7 25 -16 50 -20 55 -4 6 -10 31 -14 57 -7 44 -5 47 21 62 33 17
44 19 61 8z m2613 -117 c41 -15 77 -31 80 -35 3 -4 19 -6 35 -4 17 2 54 6 84
9 54 5 54 5 36 -15 -16 -18 -16 -20 -2 -20 9 0 21 9 27 20 6 11 26 22 47 26
42 8 130 37 139 47 4 3 12 1 18 -6 8 -8 12 -46 11 -114 -2 -98 -4 -107 -41
-180 -40 -81 -56 -103 -72 -103 -5 0 -7 -11 -5 -23 3 -16 -9 -46 -35 -88 l-39
-65 14 -54 c14 -55 81 -179 115 -213 10 -10 18 -24 18 -32 0 -17 -59 -30 -94
-21 -16 4 -37 -1 -61 -15 -45 -27 -123 -34 -197 -18 -71 14 -72 22 -22 120 29
57 34 75 26 92 -5 12 -15 35 -21 50 -6 15 -24 36 -41 45 -16 9 -30 21 -30 25
0 5 -9 20 -20 34 -11 14 -20 22 -20 18 0 -4 -9 4 -20 18 -11 14 -20 30 -20 36
0 6 -19 31 -42 56 -30 32 -44 41 -50 32 -7 -9 -8 -8 -6 3 1 8 -8 34 -20 57
-18 34 -19 42 -7 47 24 9 19 39 -5 31 -19 -6 -19 -3 -13 47 4 29 7 81 6 116 0
34 3 62 7 62 4 0 7 -6 6 -14 0 -8 4 -15 9 -15 6 0 9 16 7 37 -6 69 20 70 198
7z m-2725 -31 c21 -77 60 -162 85 -189 13 -14 18 -25 12 -25 -7 0 -12 -5 -12
-11 0 -5 4 -8 9 -4 5 3 12 1 16 -5 3 -5 1 -10 -6 -10 -6 0 -17 -6 -23 -14 -14
-18 -53 -4 -63 21 -4 10 -31 57 -60 106 -38 62 -53 99 -55 130 -3 41 -2 42 29
42 17 0 35 3 39 8 11 10 14 5 29 -49z m3309 -23 c3 -4 16 -6 28 -4 13 3 52 -9
88 -26 104 -49 151 -136 130 -242 -16 -79 -79 -257 -110 -309 -15 -25 -29 -56
-33 -70 -3 -14 -16 -35 -27 -48 -12 -12 -18 -27 -15 -32 3 -6 1 -10 -4 -10
-20 0 -62 -44 -56 -58 3 -10 0 -12 -10 -8 -10 3 -15 -1 -15 -12 -1 -56 -47
-48 -68 12 -8 20 -31 64 -53 99 -22 34 -50 85 -63 112 -13 28 -34 56 -45 63
-12 7 -21 17 -21 22 0 5 23 33 50 62 28 29 50 58 50 65 0 7 9 17 20 23 21 11
95 158 129 256 24 68 25 78 11 69 -6 -4 -10 5 -10 19 0 25 13 35 24 17z
m-3430 -88 c10 -21 34 -67 54 -103 31 -54 36 -69 27 -87 -5 -13 -18 -23 -27
-23 -21 0 -24 16 -6 22 14 5 -24 62 -68 106 -28 27 -39 62 -30 97 9 36 31 31
50 -12z m2547 -37 c1 -6 0 -28 -1 -48 -1 -25 3 -38 11 -38 7 0 10 -3 6 -6 -17
-17 62 -122 184 -245 36 -36 69 -72 73 -80 12 -24 30 -53 54 -87 l23 -32 -44
-53 c-49 -59 -98 -143 -117 -202 -7 -22 -16 -44 -21 -50 -5 -5 -9 -19 -9 -32
0 -16 -6 -23 -20 -23 -11 0 -20 4 -20 8 0 5 -21 31 -47 58 -26 27 -47 53 -45
58 4 12 -19 37 -29 30 -5 -3 -9 -1 -9 4 0 5 -20 31 -45 58 -25 27 -45 52 -45
56 0 5 -7 8 -15 8 -8 0 -15 7 -15 15 0 12 -37 84 -70 135 -5 8 -19 35 -31 59
-12 25 -27 50 -34 57 -13 13 -28 108 -29 188 -1 34 4 51 14 56 8 5 64 32 123
61 59 29 110 56 112 60 7 11 45 -1 46 -15z m-2251 -120 c0 -3 -4 -8 -10 -11
-5 -3 -10 -1 -10 4 0 6 5 11 10 11 6 0 10 -2 10 -4z m1916 -71 c1 -31 8 -72
14 -91 7 -20 10 -49 8 -65 -3 -16 -1 -29 4 -29 4 0 8 -4 8 -10 0 -5 -6 -10
-13 -10 -8 0 -19 -12 -26 -26 -6 -15 -23 -35 -36 -46 -14 -11 -25 -26 -25 -35
0 -8 -11 -24 -25 -35 -14 -11 -25 -26 -25 -34 0 -8 -4 -13 -9 -10 -5 4 -12 -7
-16 -23 -3 -16 -13 -35 -21 -42 -8 -6 -14 -15 -14 -20 0 -4 -13 -30 -28 -56
-16 -27 -37 -72 -46 -101 -10 -28 -22 -54 -27 -57 -5 -4 -9 -19 -9 -35 0 -16
-4 -32 -10 -35 -5 -3 -10 -19 -10 -34 0 -16 -7 -34 -15 -41 -8 -7 -15 -25 -15
-41 0 -16 -6 -48 -14 -71 -12 -38 -19 -88 -31 -218 -1 -19 -7 -51 -12 -70 -5
-19 -8 -48 -6 -65 1 -16 -3 -35 -9 -42 -5 -7 -7 -21 -4 -30 4 -10 4 -14 0 -10
-4 4 -12 3 -18 -2 -19 -15 -138 -61 -146 -56 -4 3 -11 -11 -14 -30 -8 -40 -17
-44 -31 -13 -15 32 -33 33 -41 1 -9 -35 -35 -72 -51 -73 -7 0 -10 -7 -6 -16 7
-18 -46 -126 -58 -118 -5 3 -9 -2 -9 -10 0 -9 5 -16 10 -16 6 0 10 -8 9 -17 0
-11 -3 -13 -6 -5 -9 22 -25 13 -17 -10 6 -21 5 -22 -11 -8 -17 14 -18 13 -12
-2 3 -10 2 -18 -3 -18 -5 0 -12 -9 -15 -20 -3 -11 -13 -20 -21 -20 -8 0 -14
-2 -14 -4 0 -2 -3 -13 -6 -23 -5 -16 -4 -16 11 2 14 17 17 18 25 5 12 -18 8
-46 -6 -43 -5 1 -16 4 -25 8 -12 5 -20 -2 -28 -26 -15 -42 -14 -50 4 -43 10 4
15 0 15 -11 0 -12 -5 -15 -20 -10 -22 7 -53 -11 -45 -25 3 -5 1 -11 -5 -15 -5
-3 -10 -19 -10 -36 0 -19 -5 -29 -15 -29 -9 0 -12 6 -8 16 5 14 1 16 -25 12
-26 -4 -32 -1 -32 14 0 10 -4 18 -10 18 -5 0 -10 -7 -10 -15 0 -8 -3 -15 -7
-16 -63 -9 -80 -5 -138 34 -67 45 -80 57 -216 207 -52 58 -110 132 -129 164
-18 33 -41 67 -49 76 -24 25 -65 111 -101 215 -12 33 -25 69 -30 80 -16 34
-41 119 -43 145 -2 14 -13 45 -25 69 -12 25 -22 52 -22 60 0 18 -21 80 -34 99
-4 8 -9 32 -11 55 -3 54 -23 127 -34 127 -5 0 -11 12 -14 28 -3 15 -9 35 -12
45 -6 14 -2 17 22 17 23 0 41 12 77 50 26 28 53 50 61 50 13 0 78 60 121 113
24 29 46 85 39 97 -3 5 5 6 17 2 12 -3 19 -1 15 4 -3 6 -2 16 4 24 7 12 9 11
9 -6 0 -12 7 -27 15 -34 8 -7 15 -19 15 -27 0 -8 7 -27 14 -41 8 -15 22 -45
31 -67 9 -22 30 -67 47 -100 49 -95 188 -435 188 -460 0 -7 13 -37 29 -67 31
-61 40 -105 42 -223 2 -77 19 -135 40 -135 5 0 14 -10 19 -22 8 -18 8 -15 4
14 -3 20 -5 51 -5 70 2 56 2 71 -2 133 -2 33 -7 75 -11 93 -6 25 -4 32 8 32
20 0 30 -21 46 -95 7 -33 21 -87 31 -119 11 -33 19 -72 19 -87 0 -19 7 -32 21
-40 23 -12 23 -11 3 103 -3 21 -3 46 1 55 5 15 11 9 30 -27 13 -25 24 -58 25
-73 0 -19 4 -27 13 -24 17 6 13 150 -6 204 -14 40 -13 42 4 33 26 -15 33 5 15
42 -9 17 -16 37 -16 45 0 7 -6 16 -14 19 -8 3 -17 17 -21 32 -3 14 -14 32 -23
39 -16 12 -16 12 1 13 9 0 17 5 17 11 0 7 11 22 24 34 14 13 28 40 32 61 4 22
10 41 13 44 4 3 15 21 25 40 39 77 72 126 117 170 48 48 89 104 89 122 0 8 12
25 26 39 14 13 33 41 41 62 8 20 21 37 29 37 8 0 14 7 14 15 0 8 6 15 13 15 6
0 22 15 34 33 30 43 114 129 150 152 29 19 49 35 88 73 13 13 28 21 34 18 5
-4 16 3 24 15 14 19 51 44 107 69 13 6 27 15 30 19 10 16 65 39 74 31 4 -4 10
-34 12 -65z m28 -260 c3 -9 0 -15 -9 -15 -9 0 -12 6 -9 15 4 8 7 15 9 15 2 0
5 -7 9 -15z m-1954 -61 c0 -8 -5 -12 -10 -9 -6 4 -8 11 -5 16 9 14 15 11 15
-7z m1886 -26 c-18 -26 -22 -17 -5 14 6 11 13 17 16 15 3 -3 -2 -16 -11 -29z
m1623 -233 c71 -176 104 -295 121 -435 7 -52 16 -105 21 -118 14 -36 12 -41
-33 -53 -24 -6 -52 -15 -63 -19 -11 -5 -38 -11 -60 -15 -22 -3 -69 -15 -105
-25 -36 -11 -92 -27 -125 -35 -33 -9 -82 -23 -108 -32 -66 -21 -73 -13 -68 90
4 94 5 157 2 207 -1 19 -3 67 -3 105 0 39 -2 93 -4 120 -15 179 -11 218 26
230 10 3 35 26 55 50 20 25 42 50 49 58 7 7 19 24 27 39 8 14 27 42 43 61 l29
36 76 -77 c71 -71 80 -85 120 -187z m-494 55 c12 -20 -22 -53 -84 -82 -66 -29
-161 -46 -161 -28 0 5 -13 7 -30 4 -23 -5 -30 -3 -30 9 0 10 25 22 83 37 45
12 87 26 92 30 6 4 25 11 42 15 18 3 35 11 38 16 8 12 42 12 50 -1z m-441 -57
c4 -5 15 -8 24 -9 46 -2 102 -18 99 -28 -5 -13 -71 -12 -101 2 -11 6 -29 13
-39 16 -10 3 -15 10 -12 16 7 12 19 13 29 3z m441 -74 c-1 -18 -5 -23 -19 -21
-18 3 -18 2 -2 -13 9 -9 16 -19 16 -23 1 -4 3 -74 6 -157 4 -82 11 -158 16
-168 5 -10 6 -26 3 -37 -3 -10 -2 -21 2 -23 4 -3 7 -57 5 -121 l-3 -116 -42
-12 c-23 -7 -51 -13 -62 -14 -11 -1 -45 -7 -75 -13 -30 -5 -111 -19 -180 -31
-69 -12 -143 -25 -165 -30 -44 -10 -75 6 -59 31 10 17 10 46 -5 165 -9 67 -10
108 -3 120 15 31 24 110 24 228 -1 79 3 115 14 130 8 11 14 30 14 42 0 12 6
27 14 33 16 14 46 4 46 -15 0 -17 12 -18 28 -2 9 9 12 9 12 -1 0 -8 6 -11 15
-7 8 3 15 0 15 -6 0 -7 5 -6 15 2 11 9 15 9 15 1 0 -8 12 -11 33 -9 19 2 31 8
30 16 -4 17 12 15 27 -3 16 -19 26 -19 48 3 17 17 189 82 207 78 6 -2 10 -14
10 -27z m-205 -13 c0 -3 -4 -8 -10 -11 -5 -3 -10 -1 -10 4 0 6 5 11 10 11 6 0
10 -2 10 -4z m-1165 -316 c3 -5 1 -10 -4 -10 -6 0 -11 5 -11 10 0 6 2 10 4 10
3 0 8 -4 11 -10z m-855 -109 c0 -6 -4 -13 -10 -16 -5 -3 -10 1 -10 9 0 9 5 16
10 16 6 0 10 -4 10 -9z m159 -35 c-3 -3 -11 5 -18 17 -13 21 -12 21 5 5 10
-10 16 -20 13 -22z m-59 2 c0 -13 -23 -5 -28 10 -2 7 2 10 12 6 9 -3 16 -11
16 -16z m2900 -11 c0 -18 -2 -19 -10 -7 -13 20 -13 43 0 35 6 -3 10 -16 10
-28z m26 -91 c22 -17 11 -35 -13 -20 -19 12 -29 34 -16 34 5 0 18 -6 29 -14z
m-256 -6 c0 -5 -7 -10 -16 -10 -8 0 -12 5 -9 10 3 6 10 10 16 10 5 0 9 -4 9
-10z m-50 -22 c0 -13 -32 -6 -37 9 -3 7 3 9 16 6 12 -3 21 -10 21 -15z m-50
-21 c0 -20 0 -20 -14 -2 -8 11 -12 23 -9 28 8 13 23 -3 23 -26z m338 11 c7 -7
12 -20 12 -30 0 -10 5 -15 13 -13 15 6 37 -42 43 -92 2 -21 6 -58 9 -83 3 -25
6 -57 7 -72 2 -16 6 -28 11 -28 4 0 7 -9 7 -20 0 -12 14 -47 31 -80 17 -33 32
-66 33 -74 1 -9 5 -19 9 -22 4 -4 7 -20 7 -36 0 -15 5 -28 10 -28 14 0 12 -68
-2 -72 -8 -3 -7 -11 5 -28 14 -21 17 -22 17 -6 0 14 3 16 13 7 10 -8 17 -7 25
1 9 9 12 8 12 -4 0 -9 -9 -20 -21 -23 -17 -6 -18 -9 -7 -22 11 -14 10 -16 -14
-11 -16 3 -25 1 -23 -6 2 -6 6 -23 9 -38 4 -16 11 -28 18 -28 16 0 37 -32 38
-56 0 -11 -6 -29 -14 -39 -12 -16 -16 -17 -30 -6 -13 11 -17 10 -25 -11 -9
-23 -70 -61 -98 -61 -7 0 -13 -5 -13 -11 0 -15 -38 -38 -50 -31 -6 4 -10 -3
-10 -13 0 -12 -11 -24 -28 -31 -15 -6 -43 -25 -62 -41 -18 -16 -37 -27 -42
-24 -4 3 -8 -2 -8 -10 0 -9 -2 -16 -5 -16 -9 0 -60 25 -65 32 -6 8 -114 -16
-141 -32 -11 -6 -22 -5 -31 3 -15 12 -38 99 -38 141 0 12 -9 29 -20 39 -20 16
-23 16 -55 1 -19 -9 -46 -17 -60 -18 -40 -2 -38 -19 15 -141 24 -53 21 -85 -8
-96 -14 -5 -33 -7 -41 -3 -11 4 -12 8 -3 11 6 3 12 10 12 16 0 6 -11 0 -26
-13 -21 -21 -27 -22 -34 -10 -8 13 -10 12 -10 -2 0 -10 -4 -18 -10 -18 -5 0
-10 5 -10 10 0 20 -21 9 -30 -16 -9 -23 -12 -24 -27 -13 -15 12 -16 12 -10 -3
3 -9 11 -34 17 -55 20 -73 59 -97 96 -62 20 18 26 20 39 9 13 -11 18 -10 29 5
9 12 19 16 31 11 11 -4 22 -2 26 5 12 21 29 -1 29 -39 0 -52 -12 -67 -39 -53
-17 10 -22 9 -27 -4 -3 -8 -13 -15 -21 -15 -10 0 -13 6 -9 16 5 14 4 15 -9 4
-19 -16 -125 -21 -142 -7 -9 6 -13 6 -13 -2 0 -6 -5 -11 -11 -11 -6 0 -9 6 -6
13 3 9 -5 14 -27 14 -49 2 -140 18 -155 27 -8 5 -16 3 -22 -5 -7 -11 -12 -12
-28 -2 -16 10 -20 9 -24 -6 -3 -14 -14 -17 -53 -16 -30 2 -53 -3 -62 -11 -7
-8 -17 -14 -21 -14 -12 0 -40 94 -30 98 5 2 9 10 9 18 0 8 -6 11 -15 8 -11 -5
-15 1 -15 23 0 16 -6 38 -14 49 -13 18 -33 112 -39 184 -2 14 -7 34 -13 45
-20 38 -37 134 -31 178 3 24 2 48 -2 53 -12 13 -30 105 -20 98 13 -7 11 -3
-11 41 -11 22 -20 52 -20 67 0 15 -5 30 -11 34 -6 4 -9 27 -6 60 4 48 2 54
-14 54 -11 0 -19 5 -19 10 0 6 9 10 20 10 11 0 20 5 20 10 0 6 -4 10 -10 10
-20 0 -9 40 18 65 21 20 28 22 30 10 4 -18 3 -18 39 -4 15 7 41 11 56 10 15
-2 38 4 51 13 20 13 90 36 164 53 13 3 26 12 29 19 3 8 9 11 14 9 5 -3 20 2
34 11 21 14 28 15 38 4 9 -10 9 -11 0 -6 -6 3 -15 1 -19 -5 -11 -18 48 -1 63
18 6 8 16 13 21 10 4 -4 21 1 37 9 16 8 35 12 43 9 7 -3 20 2 29 11 10 10 25
13 44 9 22 -5 31 -2 35 10 4 10 13 13 25 10 11 -4 19 -2 19 4 0 6 9 11 19 11
11 0 22 6 24 13 4 9 8 8 16 -3 9 -12 11 -12 16 2 5 12 12 15 27 9 26 -9 70 -2
62 10 -3 5 -2 14 2 20 4 8 9 7 15 -2 5 -9 10 -5 14 14 5 20 13 27 32 27 13 0
32 4 41 9 10 5 45 12 77 15 64 5 155 23 163 31 10 9 48 5 60 -7z m-378 -8 c0
-5 -4 -10 -10 -10 -5 0 -10 5 -10 10 0 6 5 10 10 10 6 0 10 -4 10 -10z m-52
-25 c12 -14 18 -25 13 -25 -5 0 -23 -3 -40 -6 -28 -6 -31 -4 -29 17 3 22 15
38 29 39 3 0 15 -11 27 -25z m-258 -69 c0 -3 -4 -8 -10 -11 -5 -3 -10 -1 -10
4 0 6 5 11 10 11 6 0 10 -2 10 -4z m-200 -56 c0 -5 -5 -10 -11 -10 -5 0 -7 5
-4 10 3 6 8 10 11 10 2 0 4 -4 4 -10z m-73 -13 c-2 -6 -9 -11 -15 -10 -6 2
-24 -2 -39 -8 -26 -10 -26 -9 -10 8 19 22 71 30 64 10z m-1422 -37 c-3 -5 -12
-10 -18 -10 -7 0 -6 4 3 10 19 12 23 12 15 0z m314 -14 c10 -12 9 -14 -5 -12
-10 2 -20 8 -22 14 -5 17 13 15 27 -2z m1126 4 c-3 -5 -13 -10 -21 -10 -8 0
-12 5 -9 10 3 6 13 10 21 10 8 0 12 -4 9 -10z m-100 -20 c3 -5 1 -11 -4 -15
-12 -7 -61 4 -61 14 0 10 59 11 65 1z m-215 -21 c0 7 5 9 10 6 13 -8 13 -26 0
-45 -9 -13 -11 -13 -20 0 -8 12 -13 13 -30 2 -26 -16 -26 2 -1 27 11 11 19 21
18 23 -1 2 4 -3 11 -11 8 -11 12 -11 12 -2z m-970 -1 c0 -4 19 -6 43 -5 37 3
47 -1 89 -37 38 -32 51 -53 71 -110 38 -109 46 -159 53 -311 3 -77 9 -149 14
-160 4 -11 11 -28 14 -37 3 -10 14 -18 25 -18 17 0 20 -10 26 -72 10 -110 6
-128 -39 -159 -22 -14 -49 -25 -60 -24 -12 1 -29 -3 -38 -7 -13 -7 -18 -4 -18
8 0 26 -32 72 -54 79 -57 19 -76 10 -76 -37 0 -38 -17 -27 -26 16 -5 28 -11
35 -36 40 -17 3 -36 6 -43 6 -16 0 -95 -104 -95 -125 0 -8 -4 -15 -9 -15 -14
0 -101 81 -96 90 3 5 1 20 -5 34 -6 17 -6 26 0 26 14 0 12 24 -2 38 -13 13
-18 102 -6 102 5 0 8 -4 8 -10 0 -5 4 -10 9 -10 5 0 11 16 13 35 3 24 0 35 -9
35 -14 0 -17 19 -6 47 6 15 8 13 13 -12 3 -16 6 16 6 73 1 63 6 108 13 115 6
6 11 39 11 74 0 35 4 63 9 63 4 0 11 25 15 55 3 31 15 72 26 93 11 20 20 42
20 49 0 16 63 66 92 74 33 8 48 7 48 -3z m807 -20 c-3 -8 -6 -5 -6 6 -1 11 2
17 5 13 3 -3 4 -12 1 -19z m79 -14 c-4 -9 -9 -15 -11 -12 -3 3 -3 13 1 22 4 9
9 15 11 12 3 -3 3 -13 -1 -22z m224 15 c0 -6 -9 -8 -20 -4 -11 4 -20 2 -20 -4
0 -6 -7 -11 -15 -11 -8 0 -15 -4 -15 -9 0 -5 -7 -8 -15 -7 -15 2 -17 9 -8 34
6 15 93 17 93 1z m-818 -70 c11 -15 15 -33 11 -47 -9 -36 -26 -20 -39 39 -17
69 -17 79 -1 53 6 -12 20 -32 29 -45z m-613 -116 c0 -5 -4 -17 -9 -28 -8 -18
-9 -17 -9 8 -1 15 4 27 9 27 6 0 10 -3 9 -7z m-119 -61 c0 -5 -7 -17 -15 -28
-15 -19 -20 -8 -9 20 6 17 24 22 24 8z m-60 -108 c0 -8 -4 -14 -10 -14 -5 0
-10 9 -10 21 0 11 5 17 10 14 6 -3 10 -13 10 -21z m2970 -3 c0 -6 -4 -13 -10
-16 -5 -3 -10 1 -10 9 0 9 5 16 10 16 6 0 10 -4 10 -9z m-1570 -15 c0 -3 -4
-8 -10 -11 -5 -3 -10 -1 -10 4 0 6 5 11 10 11 6 0 10 -2 10 -4z m1604 -102 c9
-24 7 -34 -8 -34 -8 0 -13 10 -13 25 0 28 12 33 21 9z m-3070 -19 c-7 -16 -24
-21 -24 -6 0 8 7 13 27 20 1 1 0 -6 -3 -14z m3036 -1 c0 -8 -5 -12 -10 -9 -6
4 -8 11 -5 16 9 14 15 11 15 -7z m-1550 -264 c0 -5 -2 -10 -4 -10 -3 0 -8 5
-11 10 -3 6 -1 10 4 10 6 0 11 -4 11 -10z m-929 -137 c16 -43 7 -86 -21 -100
-37 -19 -46 -2 -31 59 8 29 16 56 18 61 9 15 24 6 34 -20z m155 -18 c8 -13 12
-30 8 -36 -4 -7 -3 -9 4 -5 18 11 21 -9 7 -50 -10 -30 -19 -40 -39 -42 -19 -3
-26 1 -27 15 0 10 -3 46 -5 81 -5 57 -4 62 15 62 11 0 28 -11 37 -25z m199
-85 c-3 -5 -11 -10 -16 -10 -6 0 -7 5 -4 10 3 6 11 10 16 10 6 0 7 -4 4 -10z
m625 -30 c0 -5 -4 -10 -10 -10 -5 0 -10 5 -10 10 0 6 5 10 10 10 6 0 10 -4 10
-10z m37 -52 c-3 -8 -6 -5 -6 6 -1 11 2 17 5 13 3 -3 4 -12 1 -19z m-27 -28
c0 -5 -2 -10 -4 -10 -3 0 -8 5 -11 10 -3 6 -1 10 4 10 6 0 11 -4 11 -10z m230
-70 c0 -5 -7 -10 -16 -10 -8 0 -12 5 -9 10 3 6 10 10 16 10 5 0 9 -4 9 -10z"/>
<path d="M4812 5208 c5 -15 58 -24 58 -10 0 5 -10 12 -22 16 -34 9 -40 7 -36
-6z"/>
<path d="M5190 4876 c0 -8 -3 -23 -7 -33 -6 -16 -5 -16 10 -4 18 15 23 51 7
51 -5 0 -10 -6 -10 -14z"/>
<path d="M4460 4856 c0 -2 8 -10 18 -17 15 -13 16 -12 3 4 -13 16 -21 21 -21
13z"/>
<path d="M4976 4715 c4 -8 10 -12 15 -9 11 6 2 24 -11 24 -5 0 -7 -7 -4 -15z"/>
<path d="M4915 4700 c-3 -5 1 -10 9 -10 8 0 18 5 21 10 3 6 -1 10 -9 10 -8 0
-18 -4 -21 -10z"/>
<path d="M4556 4693 c-11 -11 -6 -21 14 -26 11 -3 22 -1 25 3 7 11 -30 32 -39
23z"/>
<path d="M2081 3824 c0 -11 3 -14 6 -6 3 7 2 16 -1 19 -3 4 -6 -2 -5 -13z"/>
<path d="M3520 3630 c0 -5 5 -10 11 -10 5 0 7 5 4 10 -3 6 -8 10 -11 10 -2 0
-4 -4 -4 -10z"/>
<path d="M4550 3200 c0 -5 5 -10 10 -10 6 0 10 5 10 10 0 6 -4 10 -10 10 -5 0
-10 -4 -10 -10z"/>
<path d="M4707 3195 c-10 -7 -14 -16 -9 -19 5 -3 15 1 22 9 17 21 9 27 -13 10z"/>
<path d="M4620 3191 c0 -13 28 -33 33 -23 3 4 -3 13 -14 20 -10 7 -19 8 -19 3z"/>
<path d="M4600 3160 c0 -5 5 -10 11 -10 5 0 7 5 4 10 -3 6 -8 10 -11 10 -2 0
-4 -4 -4 -10z"/>
<path d="M4670 3149 c0 -5 5 -7 10 -4 6 3 10 8 10 11 0 2 -4 4 -10 4 -5 0 -10
-5 -10 -11z"/>
<path d="M4720 3150 c0 -5 5 -10 10 -10 6 0 10 5 10 10 0 6 -4 10 -10 10 -5 0
-10 -4 -10 -10z"/>
<path d="M4760 3151 c0 -6 5 -13 10 -16 6 -3 10 1 10 9 0 9 -4 16 -10 16 -5 0
-10 -4 -10 -9z"/>
<path d="M4931 3140 c0 -8 6 -24 14 -34 8 -11 15 -14 15 -8 0 7 9 12 21 12 11
0 17 5 14 10 -3 6 -17 7 -30 4 -17 -4 -24 -1 -28 13 -3 11 -5 13 -6 3z"/>
<path d="M4520 3025 c-11 -13 -10 -14 4 -9 9 3 16 10 16 15 0 13 -6 11 -20 -6z"/>
<path d="M5067 2959 c7 -7 15 -10 18 -7 3 3 -2 9 -12 12 -14 6 -15 5 -6 -5z"/>
<path d="M4516 2952 c-3 -6 -1 -14 5 -17 15 -10 25 3 12 16 -7 7 -13 7 -17 1z"/>
<path d="M4994 2895 c-8 -21 1 -29 19 -18 13 7 13 10 1 21 -12 11 -15 10 -20
-3z"/>
<path d="M3421 1443 c-10 -21 -9 -28 1 -34 21 -14 23 -11 24 26 1 42 -8 45
-25 8z"/>
<path d="M3060 864 c0 -8 5 -12 10 -9 6 4 8 11 5 16 -9 14 -15 11 -15 -7z"/>
<path d="M5570 1510 c0 -5 5 -10 10 -10 6 0 10 5 10 10 0 6 -4 10 -10 10 -5 0
-10 -4 -10 -10z"/>
<path d="M5655 1510 c-3 -5 -2 -10 4 -10 5 0 13 5 16 10 3 6 2 10 -4 10 -5 0
-13 -4 -16 -10z"/>
<path d="M6040 1119 c0 -5 5 -7 10 -4 6 3 10 8 10 11 0 2 -4 4 -10 4 -5 0 -10
-5 -10 -11z"/>
<path d="M6092 980 c0 -14 2 -19 5 -12 2 6 2 18 0 25 -3 6 -5 1 -5 -13z"/>
<path d="M5449 913 c-13 -16 -12 -17 4 -4 16 13 21 21 13 21 -2 0 -10 -8 -17
-17z"/>
<path d="M5480 886 c0 -2 7 -9 15 -16 9 -7 15 -8 15 -2 0 5 -7 12 -15 16 -8 3
-15 4 -15 2z"/>
<path d="M5313 864 c-14 -15 -17 -34 -5 -34 11 0 33 38 24 43 -4 3 -13 -1 -19
-9z"/>
<path d="M5555 871 c-3 -5 -1 -12 5 -16 5 -3 10 1 10 9 0 18 -6 21 -15 7z"/>
<path d="M5585 860 c-3 -5 1 -10 9 -10 9 0 16 5 16 10 0 6 -4 10 -9 10 -6 0
-13 -4 -16 -10z"/>
<path d="M5187 853 c-4 -3 -7 -16 -7 -29 0 -12 -6 -25 -12 -27 -10 -4 -10 -6
0 -6 17 -1 15 -31 -3 -31 -8 0 -15 6 -16 13 0 6 -4 4 -8 -6 -4 -10 -10 -18
-14 -17 -5 0 -16 -9 -26 -21 -18 -22 -17 -59 0 -59 5 0 6 12 3 28 -6 23 -5 25
8 15 12 -11 17 -8 28 12 7 14 19 25 27 25 7 0 22 9 33 20 11 11 25 20 30 20 6
0 10 5 10 10 0 6 -5 10 -11 10 -6 0 -8 9 -4 20 7 23 -5 26 -24 8 -10 -11 -11
-10 -6 5 7 17 3 22 -8 10z"/>
<path d="M5630 851 c0 -5 7 -11 15 -15 8 -3 16 -16 16 -28 1 -21 2 -21 6 -3 3
11 10 23 16 27 14 9 9 14 -25 22 -16 3 -28 2 -28 -3z"/>
<path d="M5260 815 c-7 -8 -8 -15 -2 -15 5 0 15 7 22 15 7 8 8 15 2 15 -5 0
-15 -7 -22 -15z"/>
<path d="M5711 804 c6 -8 16 -14 22 -14 5 0 16 -8 22 -17 12 -16 13 -15 12 10
-1 15 -4 27 -7 28 -60 8 -61 8 -49 -7z"/>
<path d="M5330 800 c0 -5 4 -10 9 -10 6 0 13 5 16 10 3 6 -1 10 -9 10 -9 0
-16 -4 -16 -10z"/>
<path d="M6141 734 c0 -11 3 -14 6 -6 3 7 2 16 -1 19 -3 4 -6 -2 -5 -13z"/>
<path d="M5840 722 c0 -5 7 -17 15 -28 15 -19 20 -8 9 20 -6 17 -24 22 -24 8z"/>
<path d="M5066 653 c-4 -13 -11 -23 -16 -23 -5 0 -7 -8 -3 -17 3 -10 3 -15 -2
-11 -12 11 -35 -39 -35 -75 0 -16 -7 -35 -17 -42 -15 -11 -15 -18 -4 -68 8
-30 11 -65 8 -76 -6 -23 0 -26 23 -11 12 7 12 12 2 22 -6 6 -12 28 -12 48 0
20 -5 41 -11 47 -8 8 -5 17 12 34 12 12 23 36 25 54 2 18 12 49 24 70 12 20
19 45 17 54 -2 12 -5 11 -11 -6z"/>
<path d="M5890 632 c13 -23 25 -40 28 -38 5 6 -26 64 -39 72 -7 4 -2 -12 11
-34z"/>
<path d="M5045 310 c-3 -5 -1 -10 4 -10 6 0 11 5 11 10 0 6 -2 10 -4 10 -3 0
-8 -4 -11 -10z"/>
<path d="M5050 251 c0 -5 5 -13 10 -16 6 -3 10 -2 10 4 0 5 -4 13 -10 16 -5 3
-10 2 -10 -4z"/>
<path d="M5428 185 c2 -14 8 -25 12 -25 14 0 19 27 7 39 -18 18 -25 13 -19
-14z"/>
<path d="M5215 6745 c-11 -5 -22 -19 -23 -30 -4 -19 -3 -19 20 3 33 30 38 28
38 -13 0 -24 5 -35 15 -35 8 0 15 4 15 9 0 5 8 7 19 4 15 -4 18 0 14 20 -4 22
-2 25 17 20 17 -4 20 -11 16 -29 -8 -32 11 -31 26 2 15 32 0 44 -54 44 -20 0
-39 4 -43 9 -7 12 -34 10 -60 -4z m71 -42 c-10 -10 -19 5 -10 18 6 11 8 11 12
0 2 -7 1 -15 -2 -18z"/>
<path d="M5390 6705 c0 -7 8 -19 18 -25 15 -9 14 -10 -5 -5 -28 8 -31 -12 -5
-31 22 -17 32 -17 32 -1 0 9 10 12 30 9 31 -4 39 -17 18 -25 -7 -3 -1 -6 14
-6 14 -1 29 5 31 12 4 7 6 6 6 -4 1 -10 12 -19 29 -21 15 -3 35 -9 45 -13 12
-5 17 -2 18 11 0 14 4 12 13 -8 9 -21 15 -25 23 -17 15 15 34 2 26 -19 -3 -9
-2 -14 2 -9 5 4 17 0 27 -10 10 -9 21 -13 24 -10 4 4 19 -2 34 -13 16 -11 32
-20 38 -20 5 0 25 -13 43 -30 19 -16 37 -30 40 -30 4 0 22 -13 40 -30 19 -16
40 -30 47 -30 14 0 16 46 2 55 -5 3 -10 1 -10 -6 0 -7 -14 3 -31 22 -17 19
-37 33 -45 31 -8 -2 -14 1 -14 5 0 5 -20 19 -45 33 -25 14 -45 28 -45 32 0 5
-8 8 -17 8 -9 0 -24 6 -32 14 -31 28 -173 96 -200 96 -15 0 -43 9 -64 19 -20
10 -37 14 -37 8 0 -5 -8 -3 -18 6 -23 21 -32 21 -32 2z m215 -85 c3 -6 -1 -7
-9 -4 -18 7 -21 14 -7 14 6 0 13 -4 16 -10z"/>
<path d="M4210 6690 c0 -5 5 -10 10 -10 6 0 10 5 10 10 0 6 -4 10 -10 10 -5 0
-10 -4 -10 -10z"/>
<path d="M3810 6530 c0 -5 4 -10 10 -10 5 0 1 -15 -10 -32 -28 -46 -26 -84 5
-104 14 -9 25 -23 25 -30 0 -8 5 -14 10 -14 6 0 10 4 10 8 0 13 104 35 108 22
2 -5 14 -10 27 -10 13 0 28 -6 32 -14 11 -20 88 -36 124 -26 18 5 27 5 24 -1
-12 -19 11 -8 34 16 16 18 30 24 44 19 22 -7 22 -6 -31 71 -40 57 -52 67 -70
60 -10 -4 -11 1 -6 17 6 20 5 21 -10 9 -9 -7 -16 -10 -16 -6 0 4 -7 2 -16 -6
-13 -10 -17 -10 -25 2 -7 11 -9 11 -9 1 0 -8 -6 -12 -12 -9 -7 2 -12 13 -10
23 2 16 -1 15 -17 -6 -11 -14 -21 -28 -21 -32 0 -18 -30 -6 -30 11 0 26 -50
44 -68 25 -7 -8 -22 -14 -34 -14 -12 0 -18 3 -15 7 4 3 -5 12 -19 20 -31 16
-34 16 -34 3z"/>
<path d="M5346 6493 c-3 -8 -9 -12 -13 -10 -5 3 -24 -3 -43 -14 -19 -10 -42
-21 -51 -25 -37 -13 -75 -149 -42 -149 6 0 15 -3 19 -7 11 -12 46 -10 39 2 -3
5 6 16 21 22 21 10 28 10 31 1 3 -8 13 -3 27 12 13 14 30 25 39 25 9 0 21 9
27 20 6 12 21 20 35 20 14 0 25 6 25 13 0 7 8 3 16 -8 12 -14 18 -16 21 -7 4
10 8 10 19 1 11 -9 15 -8 20 5 5 14 8 15 18 2 8 -10 17 -12 34 -5 29 11 40 39
19 50 -9 5 -23 16 -31 24 -8 8 -22 15 -30 15 -9 0 -16 5 -16 11 0 6 -6 9 -12
6 -7 -2 -12 -10 -10 -16 1 -7 -2 -10 -8 -6 -5 3 -10 12 -10 20 0 20 -137 18
-144 -2z"/>
<path d="M5895 6360 c7 -11 45 -33 45 -26 0 2 -7 12 -16 20 -17 18 -39 22 -29
6z"/>
<path d="M6090 6334 c0 -8 5 -12 10 -9 6 4 8 11 5 16 -9 14 -15 11 -15 -7z"/>
<path d="M6559 6180 c-9 -8 -24 -21 -35 -28 -17 -11 -17 -12 6 -6 27 7 53 30
48 42 -2 4 -10 1 -19 -8z"/>
<path d="M6470 6130 c-8 -15 -8 -20 3 -20 7 0 13 9 13 20 0 11 -1 20 -3 20 -1
0 -7 -9 -13 -20z"/>
<path d="M6440 6045 c-14 -16 -10 -18 14 -9 9 3 16 10 16 15 0 14 -16 11 -30
-6z"/>
<path d="M3342 5867 c-1 -27 -7 -58 -13 -70 -11 -20 -10 -21 5 -6 13 12 16 29
13 70 l-3 54 -2 -48z"/>
<path d="M4072 5739 c-13 -5 -28 -7 -32 -4 -5 3 -11 1 -15 -5 -3 -5 -18 -7
-32 -4 -19 5 -24 3 -21 -7 5 -14 89 -18 165 -7 18 2 57 1 88 -2 64 -7 85 1 66
24 -15 17 -36 22 -26 6 3 -5 -1 -10 -9 -10 -9 0 -16 4 -16 9 0 12 -139 12
-168 0z"/>
<path d="M5355 5740 c-7 -12 2 -30 16 -30 5 0 9 9 9 20 0 21 -15 27 -25 10z"/>
<path d="M5396 5736 c7 -19 38 -22 32 -3 -3 6 -12 13 -21 15 -12 2 -15 -1 -11
-12z"/>
<path d="M5238 5722 c-51 -23 -48 -31 10 -21 57 9 82 18 82 30 0 14 -52 9 -92
-9z"/>
<path d="M5455 5730 c-4 -6 5 -10 19 -10 14 0 26 5 26 10 0 6 -9 10 -19 10
-11 0 -23 -4 -26 -10z"/>
<path d="M5758 5723 c7 -3 16 -2 19 1 4 3 -2 6 -13 5 -11 0 -14 -3 -6 -6z"/>
<path d="M4115 5608 c-22 -4 -55 -8 -72 -9 -31 -3 -47 -18 -20 -20 93 -4 137
-3 137 3 0 3 15 4 33 1 17 -2 40 -5 50 -5 9 1 17 -3 17 -7 0 -5 8 -11 18 -15
80 -27 84 -30 103 -86 10 -30 19 -64 19 -75 0 -12 5 -26 11 -32 7 -7 7 -29 -1
-73 -9 -50 -9 -65 1 -71 10 -6 10 -16 1 -47 -13 -43 -39 -60 -147 -96 -73 -24
-346 -46 -363 -29 -7 7 -21 13 -30 13 -73 0 -172 232 -121 285 6 5 13 5 20 -2
6 -6 18 -9 27 -6 12 5 14 0 9 -27 l-7 -33 24 27 c15 18 26 24 30 17 5 -8 21
-3 50 14 50 29 111 34 120 8 6 -15 8 -15 19 1 12 16 22 17 93 10 43 -5 86 -9
94 -9 15 0 34 -24 46 -57 8 -23 17 -23 37 0 24 26 21 38 -13 59 -16 9 -30 21
-30 25 0 4 -7 8 -15 8 -9 0 -19 10 -24 23 -12 32 -102 77 -152 77 -41 0 -124
-33 -180 -71 -14 -10 -45 -21 -68 -25 -22 -4 -41 -10 -41 -15 0 -5 -7 -9 -16
-9 -23 0 -13 62 15 91 11 12 18 26 15 30 -7 11 18 49 33 49 7 0 24 11 39 25
34 32 18 32 -40 1 -37 -20 -46 -21 -50 -9 -9 21 -25 6 -19 -17 4 -14 0 -20
-10 -20 -9 0 -22 -19 -32 -45 -37 -95 1 -346 60 -402 13 -12 25 -28 27 -35 3
-9 36 -13 122 -13 65 0 120 4 123 8 3 4 11 3 19 -4 11 -9 17 -9 28 0 26 22
234 31 246 11 6 -10 17 -6 44 15 58 44 65 84 48 250 -5 44 -6 82 -2 85 11 9 9
51 -3 56 -7 2 -12 20 -11 42 1 42 -4 62 -17 62 -4 0 -25 11 -45 25 -21 14 -44
23 -51 21 -7 -3 -15 -1 -18 4 -4 6 -22 10 -41 10 -19 0 -34 4 -34 8 0 10 -48
10 -105 0z m5 -198 c0 -5 -4 -10 -10 -10 -5 0 -10 5 -10 10 0 6 5 10 10 10 6
0 10 -4 10 -10z"/>
<path d="M5278 5614 c-3 -3 -25 -5 -49 -6 -47 0 -73 -19 -108 -78 -21 -35 -31
-92 -11 -60 5 8 10 11 10 7 0 -4 -7 -19 -16 -32 -9 -15 -16 -46 -16 -77 -1
-29 -5 -59 -11 -65 -6 -9 -6 -13 2 -13 7 0 10 -4 7 -9 -6 -10 8 -88 27 -156
12 -42 51 -84 78 -85 8 0 20 -5 26 -11 6 -6 28 -9 49 -7 l39 4 -32 8 c-18 5
-33 15 -35 24 -2 9 -21 25 -43 36 -24 13 -42 30 -45 46 -4 14 -12 24 -19 22
-9 -2 -9 3 -1 17 7 14 7 40 -1 88 -11 74 -12 161 -1 177 4 6 12 27 17 46 8 24
17 35 30 35 11 0 21 7 23 15 3 18 41 44 50 36 3 -4 -3 -13 -14 -22 -18 -14
-18 -15 6 -8 13 4 30 13 38 20 13 13 26 17 65 17 9 0 17 4 17 8 0 5 7 9 15 9
8 0 15 -4 15 -10 0 -5 9 -10 20 -10 11 0 20 4 20 9 0 10 19 9 38 -2 6 -5 12
-6 12 -4 0 3 16 1 35 -3 32 -7 56 2 42 17 -15 14 -216 23 -234 10 -9 -6 -13
-5 -13 2 0 11 -22 15 -32 5z m-88 -545 c0 -6 -4 -7 -10 -4 -5 3 -10 11 -10 16
0 6 5 7 10 4 6 -3 10 -11 10 -16z"/>
<path d="M4945 5601 c-6 -11 9 -23 19 -14 9 9 7 23 -3 23 -6 0 -12 -4 -16 -9z"/>
<path d="M5575 5601 c-3 -6 3 -15 14 -20 26 -15 28 -14 34 9 4 16 0 20 -18 20
-13 0 -26 -4 -30 -9z"/>
<path d="M3935 5590 c-4 -6 -11 -8 -16 -5 -5 4 -9 1 -9 -5 0 -15 72 -8 78 8 5
15 -44 17 -53 2z"/>
<path d="M5636 5584 c-6 -15 17 -43 37 -44 4 0 7 -9 7 -20 0 -14 6 -20 18 -18
10 2 16 -2 14 -11 -1 -7 4 -24 12 -37 9 -12 13 -30 10 -39 -4 -8 -1 -22 5 -29
13 -15 -1 -32 -18 -22 -5 3 -12 -2 -15 -11 -6 -14 -9 -15 -16 -4 -4 8 -6 20
-3 27 5 14 -26 34 -55 34 -11 0 -37 12 -58 26 -59 40 -135 44 -202 10 -29 -15
-55 -33 -59 -41 -3 -8 -9 -15 -14 -15 -5 0 -17 -8 -27 -18 -10 -10 -28 -25
-41 -34 -23 -16 -44 -79 -34 -104 4 -11 9 -12 18 -4 7 6 19 9 26 8 9 -2 15 8
17 25 2 15 9 27 16 27 8 0 19 6 25 14 6 7 30 16 52 20 23 4 54 13 70 22 16 8
34 12 40 8 6 -4 15 0 20 7 7 11 12 12 29 2 11 -7 36 -13 55 -13 34 0 62 -11
95 -37 13 -10 21 -8 44 12 16 14 31 25 33 25 1 0 3 -15 2 -32 0 -18 -3 -27 -6
-20 -5 13 -33 17 -33 4 0 -4 8 -12 19 -19 18 -12 35 -83 19 -83 -4 0 -8 -11
-8 -24 0 -26 -78 -111 -112 -122 -32 -10 -2 -34 35 -28 72 12 79 15 73 29 -3
9 1 15 9 15 18 0 20 17 3 23 -10 3 -9 12 4 38 21 42 32 95 21 102 -4 3 -6 47
-2 99 4 67 2 100 -8 118 -16 30 -17 47 -3 52 14 4 -38 78 -55 78 -8 0 -15 5
-15 10 0 17 -37 11 -44 -6z m54 -518 c0 -2 -8 -10 -17 -17 -16 -13 -17 -12 -4
4 13 16 21 21 21 13z"/>
<path d="M4920 5479 c0 -5 5 -7 10 -4 6 3 10 8 10 11 0 2 -4 4 -10 4 -5 0 -10
-5 -10 -11z"/>
<path d="M6415 5310 c17 -6 37 -12 47 -13 24 -4 47 -27 42 -41 -2 -6 3 -20 12
-31 15 -20 15 -20 11 2 -3 12 0 24 6 26 32 10 -40 52 -105 61 -38 5 -40 4 -13
-4z"/>
<path d="M6557 5229 c-4 -16 -3 -18 9 -8 7 6 11 15 8 20 -8 13 -11 11 -17 -12z"/>
<path d="M6596 5195 c4 -8 8 -15 10 -15 2 0 4 7 4 15 0 8 -4 15 -10 15 -5 0
-7 -7 -4 -15z"/>
<path d="M6544 5174 c3 -9 6 -18 6 -20 0 -2 5 -4 10 -4 6 0 10 9 10 20 0 12
-7 20 -16 20 -11 0 -14 -5 -10 -16z"/>
<path d="M6589 5162 c-3 -25 -1 -74 5 -79 9 -9 14 -2 21 38 5 28 3 38 -9 42
-9 4 -16 3 -17 -1z"/>
<path d="M5980 5140 c-13 -8 -12 -10 3 -10 9 0 17 5 17 10 0 12 -1 12 -20 0z"/>
<path d="M6622 5068 c-5 -7 -13 -32 -17 -55 -4 -24 -12 -43 -18 -43 -7 0 -5
-5 3 -10 10 -6 11 -10 3 -10 -7 0 -13 -5 -13 -11 0 -5 5 -7 10 -4 6 3 10 -2
11 -12 0 -10 2 -26 4 -37 2 -10 -1 -30 -7 -45 l-11 -26 -7 25 c-9 28 -7 36
-16 -75 -1 -22 -12 -58 -22 -80 -11 -22 -18 -43 -15 -47 2 -5 0 -8 -6 -8 -5 0
-13 -10 -17 -22 -4 -13 -17 -36 -29 -53 -26 -34 -40 -102 -18 -84 7 7 13 23
13 37 0 14 3 22 7 19 11 -12 53 35 53 59 0 13 4 25 9 28 5 4 18 25 30 49 50
105 79 218 73 287 -2 25 -4 64 -5 87 -1 24 -3 43 -3 43 -1 0 -6 -6 -12 -12z
m13 -109 c-10 -15 -25 -10 -19 6 4 8 10 12 15 9 5 -3 7 -10 4 -15z"/>
<path d="M5891 5052 c-6 -12 -11 -29 -10 -39 0 -11 6 -6 15 16 16 37 12 55 -5
23z"/>
<path d="M5518 5033 c7 -3 16 -2 19 1 4 3 -2 6 -13 5 -11 0 -14 -3 -6 -6z"/>
<path d="M6335 5029 c4 -5 1 -24 -5 -40 -17 -41 -5 -48 15 -9 17 32 14 60 -5
60 -6 0 -8 -5 -5 -11z"/>
<path d="M5370 5020 c-12 -8 -11 -10 8 -10 12 0 22 5 22 10 0 13 -11 13 -30 0z"/>
<path d="M5450 5020 c0 -5 9 -10 19 -10 11 0 23 5 26 10 4 6 -5 10 -19 10 -14
0 -26 -4 -26 -10z"/>
<path d="M6241 4974 c0 -11 3 -14 6 -6 3 7 2 16 -1 19 -3 4 -6 -2 -5 -13z"/>
<path d="M6337 4938 c-4 -12 -4 -24 -1 -27 6 -7 24 20 24 37 0 21 -17 13 -23
-10z"/>
<path d="M5841 4914 c0 -11 3 -14 6 -6 3 7 2 16 -1 19 -3 4 -6 -2 -5 -13z"/>
<path d="M6235 4880 c3 -5 8 -10 11 -10 2 0 4 5 4 10 0 6 -5 10 -11 10 -5 0
-7 -4 -4 -10z"/>
<path d="M6309 4863 c-11 -12 -5 -17 15 -14 4 1 14 -3 21 -9 9 -8 11 -5 8 13
-5 26 -27 31 -44 10z"/>
<path d="M6255 4851 c-3 -5 -1 -12 5 -16 5 -3 10 1 10 9 0 18 -6 21 -15 7z"/>
<path d="M6218 4825 c2 -14 6 -25 8 -25 2 0 4 11 4 25 0 14 -4 25 -9 25 -4 0
-6 -11 -3 -25z"/>
<path d="M3760 4819 c0 -5 5 -7 10 -4 6 3 10 8 10 11 0 2 -4 4 -10 4 -5 0 -10
-5 -10 -11z"/>
<path d="M2900 4761 c0 -5 7 -15 17 -22 15 -13 15 -12 4 9 -12 23 -21 28 -21
13z"/>
<path d="M2966 4670 c-13 -4 -16 -9 -8 -14 6 -3 9 -13 6 -21 -4 -8 1 -18 10
-21 24 -9 28 -1 19 34 -6 23 -12 28 -27 22z"/>
<path d="M6415 4500 c-3 -5 1 -10 9 -10 9 0 16 5 16 10 0 6 -4 10 -9 10 -6 0
-13 -4 -16 -10z"/>
<path d="M6410 4440 c0 -5 -7 -10 -15 -10 -8 0 -15 -4 -15 -9 0 -5 9 -7 20 -4
17 5 30 33 15 33 -3 0 -5 -4 -5 -10z"/>
<path d="M4478 4323 c-16 -3 -28 -11 -28 -19 0 -15 -16 -19 -24 -5 -9 14 -56
0 -69 -20 -7 -11 -19 -19 -28 -19 -9 0 -22 -6 -29 -14 -6 -8 -18 -12 -26 -9
-8 3 -14 0 -14 -6 0 -6 -6 -11 -14 -11 -7 0 -19 -7 -26 -15 -10 -12 -10 -18 0
-30 10 -12 10 -18 0 -30 -10 -12 -10 -16 1 -20 16 -6 23 -75 8 -75 -5 0 -9 -5
-9 -11 0 -5 4 -8 9 -5 5 3 11 -1 15 -9 3 -8 12 -15 21 -15 11 0 15 -10 15 -35
0 -23 5 -35 13 -34 27 3 33 -2 31 -32 -2 -26 1 -30 17 -26 23 6 32 -7 31 -44
0 -15 5 -33 13 -39 11 -9 12 -7 8 11 l-6 23 23 -21 c12 -12 20 -28 17 -37 -4
-10 5 -17 31 -23 24 -6 36 -14 35 -24 -6 -30 106 -60 232 -63 33 0 63 -5 67
-11 4 -6 8 -2 8 8 0 19 16 24 22 6 2 -7 19 -8 56 -1 29 5 55 6 57 1 3 -4 30
-7 60 -6 47 2 61 7 90 35 20 17 44 32 54 32 9 0 31 12 48 28 37 33 119 167
140 227 10 31 19 42 29 38 8 -3 14 1 14 10 0 8 -4 17 -10 19 -6 2 -4 14 4 30
9 16 12 42 9 66 -5 34 -2 42 16 51 11 7 21 16 21 20 0 9 -32 22 -60 26 -15 1
-40 10 -75 26 -11 5 -35 11 -53 12 -17 2 -34 6 -37 9 -5 5 -148 1 -195 -5 -14
-2 -51 -12 -83 -22 -51 -17 -62 -17 -90 -6 -18 8 -63 18 -102 23 -61 9 -88 14
-98 19 -1 0 -20 4 -42 9 -22 4 -47 10 -55 12 -8 3 -27 3 -42 1z m215 -78 c43
-8 90 -21 105 -28 43 -20 121 -10 186 25 35 19 50 20 141 15 56 -4 110 -9 119
-13 21 -8 21 -24 0 -24 -9 0 -28 -9 -44 -20 -27 -19 -75 -42 -95 -45 -5 0 -18
-5 -29 -10 -12 -5 -21 -3 -27 6 -7 11 -9 11 -9 -3 0 -13 -8 -17 -32 -17 -18 1
-45 -4 -60 -9 -56 -23 -201 -26 -320 -7 -62 10 -120 20 -128 23 -8 3 -19 4
-24 3 -4 -1 -19 5 -33 14 -20 13 -22 19 -12 31 13 16 9 17 -24 5 -18 -7 -26
-5 -35 9 -14 23 -3 27 113 46 108 16 118 16 208 -1z m634 -119 c-4 -9 -11 -16
-18 -16 -6 0 -8 7 -5 16 3 9 6 21 6 27 0 8 3 8 11 0 7 -7 9 -19 6 -27z m-179
-68 c18 -18 14 -38 -8 -38 -11 0 -20 -4 -20 -8 0 -10 -51 -37 -64 -33 -4 1
-14 -3 -20 -9 -7 -5 -16 -7 -19 -4 -3 3 -12 2 -19 -2 -18 -11 -39 -14 -161
-18 -59 -3 -122 0 -140 5 -18 6 -42 12 -55 13 -13 2 -42 11 -65 21 -23 9 -52
21 -64 26 -25 9 -31 29 -10 29 129 5 196 -1 242 -20 61 -25 90 -31 100 -17 13
17 124 49 190 55 28 2 52 6 54 8 9 9 48 3 59 -8z m122 2 c0 -5 -5 -10 -11 -10
-5 0 -7 5 -4 10 3 6 8 10 11 10 2 0 4 -4 4 -10z m-881 -39 c6 -10 8 -21 5 -23
-6 -7 62 -39 87 -41 11 -1 22 -11 25 -22 4 -16 14 -22 37 -23 72 -3 84 -5 120
-20 23 -9 41 -12 45 -6 8 10 69 10 95 -1 9 -4 25 -4 35 1 9 4 40 8 67 9 28 1
57 5 65 8 8 4 26 8 40 9 14 2 28 7 32 12 4 6 14 4 25 -4 15 -12 16 -12 6 0
-18 20 -16 26 10 27 56 1 67 4 67 18 0 8 5 15 10 15 6 0 10 -4 10 -10 0 -5 5
-10 11 -10 6 0 9 7 5 15 -4 11 1 15 18 15 13 0 29 7 36 15 7 8 16 15 21 15 14
0 11 -38 -3 -43 -10 -4 -9 -8 2 -16 13 -9 13 -11 -2 -11 -14 0 -16 -7 -11 -35
5 -31 3 -35 -15 -35 -13 0 -23 -9 -28 -22 -12 -40 -83 -95 -148 -116 -53 -17
-80 -19 -206 -15 -108 4 -148 8 -156 19 -15 18 -24 18 -24 -2 0 -10 -4 -12
-12 -7 -7 4 -15 8 -18 9 -55 10 -79 18 -75 24 3 5 1 11 -4 14 -5 4 -12 2 -16
-4 -9 -15 -25 -12 -25 4 0 7 -13 16 -29 19 -21 4 -30 13 -33 29 -2 13 -13 27
-25 33 -13 5 -23 16 -23 23 0 7 -7 15 -16 19 -10 4 -12 8 -4 13 13 8 3 40 -14
40 -19 0 -34 33 -25 58 10 27 25 28 38 3z m-36 -101 c3 -11 1 -20 -4 -20 -5 0
-9 9 -9 20 0 11 2 20 4 20 2 0 6 -9 9 -20z m344 -236 c-3 -3 -12 -4 -19 -1 -8
3 -5 6 6 6 11 1 17 -2 13 -5z"/>
<path d="M4430 3890 c0 -5 5 -10 11 -10 5 0 7 5 4 10 -3 6 -8 10 -11 10 -2 0
-4 -4 -4 -10z"/>
<path d="M4481 3843 c-1 -16 5 -23 17 -23 10 0 13 3 6 8 -6 4 -14 14 -17 22
-4 10 -6 8 -6 -7z"/>
<path d="M5380 3519 c0 -5 5 -7 10 -4 6 3 10 8 10 11 0 2 -4 4 -10 4 -5 0 -10
-5 -10 -11z"/>
<path d="M4380 3496 c0 -31 6 -34 13 -6 3 11 1 23 -4 26 -5 3 -9 -6 -9 -20z"/>
<path d="M5254 3486 c0 -13 4 -22 9 -19 10 6 9 43 -2 43 -5 0 -8 -11 -7 -24z"/>
<path d="M5160 3465 c0 -2 9 -9 20 -15 16 -9 18 -8 14 5 -5 13 -34 22 -34 10z"/>
<path d="M2400 3411 c0 -5 7 -11 15 -15 8 -3 15 -1 15 3 0 5 -7 11 -15 15 -8
3 -15 1 -15 -3z"/>
<path d="M2450 3353 c0 -4 5 -15 10 -23 8 -13 10 -13 10 2 0 9 -4 20 -10 23
-5 3 -10 3 -10 -2z"/>
<path d="M4615 3320 c3 -5 11 -10 16 -10 6 0 7 5 4 10 -3 6 -11 10 -16 10 -6
0 -7 -4 -4 -10z"/>
<path d="M2467 3300 c-4 -8 -3 -60 1 -115 l8 -100 8 57 c9 60 -5 185 -17 158z"/>
<path d="M5780 2950 c0 -5 5 -10 10 -10 6 0 10 5 10 10 0 6 -4 10 -10 10 -5 0
-10 -4 -10 -10z"/>
<path d="M5815 2930 c-3 -5 -1 -10 4 -10 6 0 11 5 11 10 0 6 -2 10 -4 10 -3 0
-8 -4 -11 -10z"/>
<path d="M2170 2870 c0 -5 5 -10 10 -10 6 0 10 5 10 10 0 6 -4 10 -10 10 -5 0
-10 -4 -10 -10z"/>
<path d="M6015 2813 c10 -20 11 -31 3 -40 -7 -9 -7 -13 0 -13 6 0 12 6 15 13
7 19 43 -7 39 -28 -3 -13 1 -16 12 -12 16 6 20 -3 16 -32 -1 -9 4 -12 14 -8
12 5 16 0 16 -16 0 -16 3 -18 9 -8 11 17 23 -1 15 -23 -6 -16 10 -23 19 -8 2
4 2 1 1 -6 -4 -14 31 -53 40 -44 13 12 47 -38 42 -61 -3 -12 -3 -16 0 -9 5 10
9 10 20 1 11 -9 14 -9 14 0 0 7 5 9 10 6 6 -3 10 -15 10 -26 0 -20 15 -26 25
-9 7 11 -38 60 -54 60 -6 0 -8 7 -5 15 6 14 -78 111 -146 171 -14 12 -41 36
-60 53 -19 18 -43 36 -52 41 -15 9 -16 8 -3 -17z m220 -203 c3 -5 1 -10 -4
-10 -6 0 -11 5 -11 10 0 6 2 10 4 10 3 0 8 -4 11 -10z"/>
<path d="M5980 2800 c0 -5 5 -10 10 -10 6 0 10 5 10 10 0 6 -4 10 -10 10 -5 0
-10 -4 -10 -10z"/>
<path d="M2334 2595 c-4 -9 3 -23 17 -34 20 -17 25 -17 27 -4 2 8 -6 24 -17
34 -18 17 -22 18 -27 4z"/>
<path d="M6345 2470 c-4 -6 -16 -9 -27 -7 -12 4 -18 1 -15 -6 3 -7 9 -11 15
-10 5 1 10 -8 10 -20 0 -12 11 -40 26 -61 14 -21 26 -43 26 -48 0 -5 4 -7 9
-3 6 3 4 21 -4 45 -8 22 -10 40 -5 40 6 0 10 7 10 16 0 11 -5 14 -17 10 -9 -4
-20 -1 -25 6 -13 21 -9 31 7 18 16 -14 20 -3 6 19 -6 10 -10 10 -16 1z"/>
<path d="M2262 2450 c-7 -11 -9 -20 -4 -20 10 0 32 22 32 32 0 15 -15 8 -28
-12z"/>
<path d="M6414 2346 c6 -19 14 -32 18 -30 8 5 -11 64 -21 64 -5 0 -3 -15 3
-34z"/>
<path d="M6440 2300 c-13 -9 -7 -14 13 -11 4 0 7 -6 7 -14 0 -8 5 -15 10 -15
14 0 13 13 -2 33 -9 12 -17 14 -28 7z"/>
<path d="M6470 2229 c6 -10 15 -19 20 -19 6 0 10 -7 10 -15 0 -8 5 -15 11 -15
6 0 8 -7 5 -16 -3 -9 4 -30 16 -47 13 -17 21 -42 19 -55 -2 -17 1 -22 10 -16
9 5 11 2 6 -9 -7 -17 -1 -35 33 -97 11 -19 19 -28 20 -20 0 17 -60 193 -69
200 -4 3 -17 32 -30 65 -17 42 -30 61 -43 62 -15 2 -16 -2 -8 -18z"/>
<path d="M6632 1870 c0 -14 3 -34 8 -45 l9 -20 -1 20 c0 11 -4 31 -8 45 l-8
25 0 -25z"/>
<path d="M6741 1494 c0 -11 3 -14 6 -6 3 7 2 16 -1 19 -3 4 -6 -2 -5 -13z"/>
<path d="M6761 1424 c0 -11 3 -14 6 -6 3 7 2 16 -1 19 -3 4 -6 -2 -5 -13z"/>
<path d="M6790 1305 c0 -5 5 -17 10 -25 5 -8 10 -10 10 -5 0 6 -5 17 -10 25
-5 8 -10 11 -10 5z"/>
<path d="M6821 1204 c0 -11 3 -14 6 -6 3 7 2 16 -1 19 -3 4 -6 -2 -5 -13z"/>
<path d="M6827 1150 c8 -30 21 -34 15 -5 -2 14 -8 25 -12 25 -5 0 -6 -9 -3
-20z"/>
<path d="M6832 1088 c2 -6 10 -14 16 -16 7 -2 10 2 6 12 -7 18 -28 22 -22 4z"/>
<path d="M6850 1045 c0 -8 4 -15 10 -15 5 0 7 7 4 15 -4 8 -8 15 -10 15 -2 0
-4 -7 -4 -15z"/>
<path d="M6868 985 c-3 -6 -3 -29 2 -53 4 -24 3 -42 -2 -42 -5 0 -4 -10 3 -21
6 -12 8 -34 5 -50 -3 -16 -2 -29 3 -29 5 0 9 -25 10 -55 0 -31 6 -76 12 -101
21 -80 0 -194 -34 -194 -7 0 -7 4 1 12 7 7 12 16 12 20 0 16 -19 8 -52 -22
-18 -17 -42 -30 -54 -30 -15 0 -24 -8 -28 -25 -8 -32 -1 -45 26 -45 21 0 21 0
2 -21 -12 -13 -27 -19 -42 -16 -15 3 -22 0 -19 -8 3 -6 2 -16 -1 -21 -8 -11
-65 -52 -97 -70 -11 -7 -40 -23 -65 -37 -98 -56 -236 -127 -247 -127 -7 0 -13
-4 -13 -9 0 -5 -11 -12 -25 -15 -54 -14 -22 -26 68 -26 l93 0 13 32 c13 30 14
31 18 10 4 -21 6 -21 26 -7 30 21 38 19 31 -10 -6 -23 -4 -25 31 -25 36 0 36
1 34 38 -1 20 -2 59 -1 85 2 42 6 50 33 65 167 92 263 166 309 239 21 33 28
56 29 104 1 67 -21 222 -49 344 -10 44 -20 89 -22 100 -2 11 -6 15 -10 10z
m-40 -591 c1 -10 -2 -26 -8 -34 -8 -13 -11 -13 -19 -1 -5 7 -14 10 -20 7 -6
-4 -11 -3 -11 2 0 6 7 12 15 16 8 3 15 13 15 22 0 22 24 12 28 -12z"/>
<path d="M6690 399 c0 -5 5 -7 10 -4 6 3 10 8 10 11 0 2 -4 4 -10 4 -5 0 -10
-5 -10 -11z"/>
<path d="M6710 349 c0 -5 5 -7 10 -4 6 3 10 8 10 11 0 2 -4 4 -10 4 -5 0 -10
-5 -10 -11z"/>
</g>
</svg>
